<svg width="32" height="32" viewBox="0 0 32 32" fill="none" xmlns="http://www.w3.org/2000/svg">
<g clip-path="url(#clip0_441_1144)">
<path d="M16 7.151L19.302 3.115C19.302 3.115 24.958 3.235 30.594 5.855C29.151 8.037 26.287 9.105 26.287 9.105C26.094 7.188 24.751 6.72 20.48 6.72L16.001 32.001L11.491 6.715C7.251 6.715 5.908 7.184 5.715 9.1C5.715 9.1 2.85 8.043 1.408 5.86C7.043 3.24 12.7 3.12 12.7 3.12L16.002 7.151H15.997H16ZM16 1.953C20.552 1.911 25.766 2.656 31.104 4.989C31.818 3.697 32 3.13 32 3.13C26.167 0.817 20.703 0.021 16 0C11.297 0.021 5.833 0.813 0 3.13C0 3.13 0.26 3.833 0.896 4.995C6.235 2.651 11.448 1.912 16 1.948V1.953Z" fill="#E31937"/>
</g>
<defs>
<clipPath id="clip0_441_1144">
<rect width="32" height="32" fill="white"/>
</clipPath>
</defs>
</svg>
