<svg width="65" height="64" viewBox="0 0 65 64" fill="none" xmlns="http://www.w3.org/2000/svg">
<g clip-path="url(#clip0_441_1144)">
<path d="M32.54 14.302L39.144 6.23C39.144 6.23 50.456 6.47 61.728 11.71C58.842 16.074 53.114 18.21 53.114 18.21C52.728 14.376 50.042 13.44 41.5 13.44L32.542 64.002L23.522 13.43C15.042 13.43 12.356 14.368 11.97 18.2C11.97 18.2 6.24004 16.086 3.35604 11.72C14.626 6.48 25.94 6.24 25.94 6.24L32.544 14.302H32.534H32.54ZM32.54 3.906C41.644 3.822 52.072 5.312 62.748 9.978C64.176 7.394 64.54 6.26 64.54 6.26C52.874 1.634 41.946 0.042 32.54 0C23.134 0.042 12.206 1.626 0.540039 6.26C0.540039 6.26 1.06004 7.666 2.33204 9.99C13.01 5.302 23.436 3.824 32.54 3.896V3.906Z" fill="#E31937"/>
</g>
<defs>
<clipPath id="clip0_441_1144">
<rect width="64" height="64" fill="white" transform="translate(0.540039)"/>
</clipPath>
</defs>
</svg>
