<svg width="65" height="64" viewBox="0 0 65 64" fill="none" xmlns="http://www.w3.org/2000/svg">
<path fill-rule="evenodd" clip-rule="evenodd" d="M23.0594 27.168C23.0594 27.168 19.0022 26.6326 18.7797 23.4361C18.5573 20.2396 20.6971 18.8288 20.6971 17.1307C20.6971 15.4325 20.0848 14.5572 17.6117 12.0398C15.1385 9.52239 13.1916 7.79834 10.5249 5.84791C7.85887 3.89679 1.05099 -0.740645 0.60539 0.644206C0.160484 2.02906 2.13295 6.49689 2.13295 6.49689C2.13295 6.49689 0.964893 7.094 2.24452 8.08218C3.52414 9.07036 4.32855 9.57986 4.32855 9.57986C4.32855 9.57986 2.77551 9.66256 3.52414 10.7951C4.27277 11.927 6.02278 12.8899 6.02278 12.8899C6.02278 12.8899 4.74729 13.2557 5.77484 14.1612C6.80171 15.0667 6.57925 15.1802 6.57925 15.1802C6.57925 15.1802 5.1371 15.2629 5.71906 16.1691C6.30102 17.0753 6.69082 17.4145 6.69082 17.4145C6.69082 17.4145 5.16327 17.2708 5.32994 18.2331C5.4966 19.1953 6.96906 19.7875 6.96906 19.7875C6.96906 19.7875 5.32993 20.0139 5.38572 20.9201C5.4415 21.8256 6.85818 22.1346 6.85818 22.1346C6.85818 22.1346 5.36024 22.984 5.83132 23.4936C6.3017 24.0031 7.85957 24.4817 7.85957 24.4817C7.85957 24.4817 6.24592 25.1608 6.85818 25.7271C7.47044 26.2934 8.44152 26.8288 8.44152 26.8288C8.44152 26.8288 8.1075 28.7793 8.66398 28.8928C9.22046 29.0063 9.83203 28.8928 9.83203 28.8928C9.83203 28.8928 9.10888 30.2819 9.33134 30.8173C9.55379 31.3534 11.1929 31.1264 11.1929 31.1264C11.1929 31.1264 10.414 32.5981 11.1371 32.7684C11.8603 32.938 12.4422 32.7116 12.4422 32.7116C12.4422 32.7116 12.164 34.3228 12.7205 34.7188C13.2769 35.1148 13.8334 34.3228 13.8334 34.3228C13.8334 34.3228 13.3624 36.1604 14.1675 36.1604C14.9719 36.1604 16.029 35.8212 16.029 35.8212C16.029 35.8212 15.7811 37.2103 16.4182 37.4065C17.0552 37.6028 18.2239 36.9538 18.2239 36.9538C18.2239 36.9538 18.0869 38.6211 18.8362 38.5075C19.5848 38.3947 20.6978 37.8284 20.6978 37.8284C20.6978 37.8284 21.0573 39.9225 21.7804 39.4705C22.5036 39.0177 23.6978 37.4065 23.6978 37.4065L23.0594 27.168Z" fill="white"/>
<path fill-rule="evenodd" clip-rule="evenodd" d="M23.4078 29.5371C23.4078 29.5371 20.6642 29.9058 18.2358 27.3167C16.3777 24.7243 15.2406 21.1371 15.2406 19.439C15.2406 17.7409 15.5571 16.2581 14.361 12.8296C11.5396 10.6766 11.9134 10.6722 10.0595 9.93667C7.07419 7.95517 5.67761 7.22358 3.06148 4.77502C0.904994 3.29089 2.1331 6.49698 2.1331 6.49698C2.1331 6.49698 0.965049 7.09409 2.24467 8.08227C3.52429 9.07044 4.3287 9.57995 4.3287 9.57995C4.3287 9.57995 2.77567 9.66265 3.52429 10.7952C4.27291 11.9271 6.02293 12.89 6.02293 12.89C6.02293 12.89 4.74744 13.2558 5.77499 14.1613C6.80186 15.0668 6.57941 15.1803 6.57941 15.1803C6.57941 15.1803 5.13725 15.263 5.71921 16.1692C6.30117 17.0754 6.69098 17.4146 6.69098 17.4146C6.69098 17.4146 5.16342 17.2709 5.33009 18.2332C5.49675 19.1954 6.96922 19.7876 6.96922 19.7876C6.96922 19.7876 5.33009 20.014 5.38587 20.9202C5.44164 21.8256 6.85833 22.1347 6.85833 22.1347C6.85833 22.1347 5.36039 22.9841 5.83146 23.4936C6.30186 24.0031 7.85972 24.4818 7.85972 24.4818C7.85972 24.4818 6.24607 25.1609 6.85833 25.7272C7.4706 26.2935 8.44168 26.8289 8.44168 26.8289C8.44168 26.8289 8.10765 28.7793 8.66413 28.8929C9.2206 29.0064 9.83218 28.8929 9.83218 28.8929C9.83218 28.8929 9.10903 30.2819 9.33149 30.8174C9.55394 31.3535 11.1931 31.1264 11.1931 31.1264C11.1931 31.1264 10.4141 32.5982 11.1373 32.7685C11.8605 32.9381 12.4424 32.7117 12.4424 32.7117C12.4424 32.7117 12.1642 34.3229 12.7207 34.7189C13.2771 35.1149 13.8336 34.3229 13.8336 34.3229C13.8336 34.3229 13.3625 36.1605 14.1676 36.1605C14.972 36.1605 16.0292 35.8213 16.0292 35.8213C16.0292 35.8213 15.7813 37.2104 16.4183 37.4066C17.0554 37.6028 18.2241 36.9539 18.2241 36.9539C18.2241 36.9539 18.0871 38.6212 18.8364 38.5076C19.585 38.3948 20.698 37.8285 20.698 37.8285C20.698 37.8285 21.0575 39.9226 21.7806 39.4706C22.5038 39.0178 23.698 37.4066 23.698 37.4066L23.4078 29.5371Z" fill="white"/>
<path d="M12.7669 7.63885C12.3881 7.43 10.8007 6.6752 11.4047 7.96543C11.6113 8.40626 12.0169 8.92348 12.3937 9.50657C13.7284 11.5726 15.2718 13.4474 15.3937 16.0103C15.4942 18.1121 15.4123 20.5174 15.8895 22.5856C16.4019 24.8065 17.4054 26.6693 19.9357 28.2834C21.3923 29.212 23.1361 29.4432 24.7594 28.9443C25.0384 28.8587 25.1968 29.1054 25.1968 29.1054L25.3118 29.3591C25.3118 29.3591 25.1403 29.4397 24.8379 29.533C23.1389 30.0551 21.3124 29.8119 19.789 28.8405C16.238 26.5761 15.2683 23.2142 15.0872 19.2979C15.0376 18.2285 15.0424 17.2214 15.0011 16.3446C14.882 13.8475 13.466 11.675 12.1636 9.65865C11.7793 9.06294 11.3275 8.53451 11.1168 8.08458C10.6519 7.09289 11.2229 6.8469 11.8089 6.96464C12.1808 7.03963 12.4846 7.32908 12.8179 7.5127L12.7669 7.63885Z" fill="black"/>
<path d="M3.06204 4.77527C3.06689 4.78019 7.13438 8.23249 10.1606 9.43582C10.1606 9.43582 10.8362 10.1289 10.06 9.93692C7.80105 9.03845 4.69291 6.54347 2.87402 4.81872L3.06204 4.77527Z" fill="black"/>
<path d="M3.38868 7.17285C3.38868 7.17285 7.25716 10.108 11.2365 11.7101C11.2365 11.7101 12.125 12.4039 11.2537 12.1712C8.62494 11.1123 5.43966 9.06862 3.21582 7.22892L3.38868 7.17285Z" fill="black"/>
<path d="M5.29049 10.3661C5.30908 10.3773 10.3869 13.4035 12.0977 13.5696C12.0977 13.5696 12.9531 13.9403 12.0715 13.8878C10.1721 13.817 6.62314 11.2849 5.15137 10.4053L5.29049 10.3661Z" fill="black"/>
<path d="M6.9381 13.0132C6.94152 13.0153 10.4016 15.4423 13.6895 15.6105C14.1592 15.6021 14.038 16.0513 13.7157 16.0499C11.4767 15.9357 9.04417 14.8017 6.77832 13.0391L6.9381 13.0132Z" fill="black"/>
<path d="M7.61852 15.4229C7.61852 15.4229 8.07238 15.7452 9.0228 16.0809C9.98424 16.4201 11.4946 16.8547 13.6799 17.0649C13.6799 17.0649 14.0394 17.4034 13.6365 17.4665C12.1482 17.3228 9.52693 16.9542 7.50488 15.5336L7.61852 15.4229Z" fill="black"/>
<path d="M6.6908 17.1632C6.6908 17.1632 6.70664 17.1849 6.74521 17.2235C7.07923 17.5648 7.66946 17.7666 8.08613 17.9327C9.20252 18.3771 11.1371 18.9153 14.3913 18.9433C14.3913 18.9433 14.8245 19.2699 14.3892 19.3029C12.2866 19.5552 8.08061 18.8228 6.55099 17.2592C6.49383 17.2003 6.46973 17.3272 6.46973 17.3272L6.6908 17.1632Z" fill="black"/>
<path d="M7.44094 21.7972C7.46504 21.779 9.80941 19.7662 14.9651 20.5077C15.4258 20.603 15.0057 20.945 15.0057 20.945C12.8142 20.6297 9.93062 20.7656 7.84246 21.7566C7.0959 22.1112 7.44094 21.7972 7.44094 21.7972Z" fill="black"/>
<path d="M8.24512 24.254C8.25203 24.2488 11.3712 22.1095 15.4676 21.9385L15.5971 22.4186C13.3912 22.5111 10.3698 23.0458 8.5206 24.362L8.24512 24.254Z" fill="black"/>
<path d="M9.06348 26.847C9.06833 26.8411 9.77973 26.0691 11.0229 25.2835C12.266 24.4978 13.85 23.6947 15.9933 23.6372L16.1978 24.1173C13.8335 24.1811 11.6406 24.9877 9.75701 26.4889C9.06968 27.0377 9.06348 26.847 9.06348 26.847Z" fill="black"/>
<path d="M10.3661 28.5494C11.8634 26.8065 14.154 25.1602 16.3779 24.725L16.6665 25.1196C14.5425 25.5351 11.7573 27.1141 10.2959 28.8137L10.3661 28.5494Z" fill="black"/>
<path d="M11.6309 30.6911C12.7672 28.7217 14.9966 26.5631 17.2507 26.1006L17.4629 26.4952C15.4009 26.9185 13.542 28.6096 12.2597 30.2313C11.7218 30.9111 11.6309 30.6911 11.6309 30.6911Z" fill="black"/>
<path d="M12.5947 32.5976C12.5975 32.5916 13.0761 31.5337 14.0314 30.3479C14.9859 29.1628 16.3076 27.8368 18.2353 27.3175L18.5824 27.6672C16.3165 28.2791 14.4542 30.1293 13.1918 32.0573C12.7091 32.7966 12.5947 32.5976 12.5947 32.5976Z" fill="black"/>
<path d="M14.2627 33.7601C14.2627 33.7601 14.3894 33.4574 14.6277 32.992C15.6022 31.0928 17.0974 28.7583 19.2441 28.246L19.6622 28.5186C17.49 29.0365 15.9507 31.3219 14.5155 33.5877L14.2627 33.7601Z" fill="black"/>
<path d="M16.1201 35.6687C16.1201 35.6687 16.4493 34.5277 17.1387 33.098C17.8267 31.6732 18.7606 29.9471 20.2166 28.7837L20.7021 29.0836C18.7909 30.1952 16.1201 35.6687 16.1201 35.6687Z" fill="black"/>
<path d="M18.0322 37.042C18.0322 37.042 18.2629 35.7594 18.8263 34.1664C19.3869 32.5804 20.1672 30.5866 21.5123 29.3328L21.9345 29.5795C20.1383 31.2531 18.911 34.7432 18.1837 37.0931L18.0322 37.042Z" fill="black"/>
<path d="M11.5984 20.7034C11.5984 20.7034 11.3952 21.2045 11.4187 21.8367C11.5591 25.6072 13.5371 28.8591 16.6604 30.9546C22.6302 34.9605 23.1708 34.7755 23.1708 34.7755V35.1357C23.1708 35.1357 22.5571 34.9809 16.3546 31.0758C12.8711 28.8822 11.367 25.7081 11.2237 21.8472C11.199 21.1877 11.4056 20.6698 11.4056 20.6698L11.5984 20.7034Z" fill="black"/>
<path fill-rule="evenodd" clip-rule="evenodd" d="M42.0221 27.168C42.0221 27.168 46.0786 26.6326 46.3011 23.4361C46.5235 20.2395 44.3837 18.8288 44.3837 17.1306C44.3837 15.4325 44.996 14.5572 47.4691 12.0398C49.9423 9.52236 51.89 7.79831 54.556 5.84788C57.222 3.89746 64.0298 -0.740674 64.4748 0.644177C64.9197 2.02903 62.9472 6.49686 62.9472 6.49686C62.9472 6.49686 64.1152 7.09397 62.8363 8.08215C61.5567 9.07033 60.7523 9.57983 60.7523 9.57983C60.7523 9.57983 62.3053 9.66253 61.5567 10.7951C60.8081 11.9269 59.0574 12.8899 59.0574 12.8899C59.0574 12.8899 60.3328 13.2557 59.3053 14.1612C58.2784 15.0667 58.5009 15.1802 58.5009 15.1802C58.5009 15.1802 59.943 15.2629 59.3611 16.1691C58.7791 17.0753 58.39 17.4145 58.39 17.4145C58.39 17.4145 59.9176 17.2708 59.7509 18.2331C59.5842 19.1953 58.1118 19.7875 58.1118 19.7875C58.1118 19.7875 59.7509 20.0139 59.6951 20.9201C59.6393 21.8262 58.2233 22.1346 58.2233 22.1346C58.2233 22.1346 59.7206 22.984 59.2502 23.4935C58.7791 24.003 57.222 24.4817 57.222 24.4817C57.222 24.4817 58.8349 25.1608 58.2233 25.7271C57.6104 26.2934 56.6393 26.8288 56.6393 26.8288C56.6393 26.8288 56.9726 28.7792 56.4175 28.8928C55.8604 29.0063 55.2488 28.8928 55.2488 28.8928C55.2488 28.8928 55.9719 30.2818 55.7502 30.8173C55.5277 31.3534 53.8886 31.1263 53.8886 31.1263C53.8886 31.1263 54.6675 32.5981 53.9444 32.7684C53.2205 32.938 52.6386 32.7116 52.6386 32.7116C52.6386 32.7116 52.9168 34.3228 52.361 34.7188C51.8052 35.1148 51.2481 34.3228 51.2481 34.3228C51.2481 34.3228 51.7191 36.1604 50.9147 36.1604C50.1103 36.1604 49.0531 35.8212 49.0531 35.8212C49.0531 35.8212 49.3011 37.2103 48.664 37.4065C48.027 37.6027 46.8582 36.9538 46.8582 36.9538C46.8582 36.9538 46.9946 38.621 46.2466 38.5075C45.4973 38.3947 44.3844 37.8284 44.3844 37.8284C44.3844 37.8284 44.0256 39.9225 43.3024 39.4705C42.5793 39.0177 41.3857 37.4065 41.3857 37.4065L42.0221 27.168Z" fill="white"/>
<path fill-rule="evenodd" clip-rule="evenodd" d="M41.8634 29.6256C41.8634 29.6256 44.6071 29.9943 47.0354 27.4052C48.8936 24.8128 50.0307 21.2256 50.0307 19.5275C50.0307 17.8294 49.7432 16.0429 50.9392 12.6143C53.7607 10.4614 53.3868 10.3659 55.2408 9.63034C58.2261 7.64884 59.5936 7.31208 62.2098 4.86352C64.3662 3.37939 63.1381 6.58549 63.1381 6.58549C63.1381 6.58549 64.3062 7.18259 63.0266 8.17077C61.747 9.15895 60.9425 9.66846 60.9425 9.66846C60.9425 9.66846 62.4956 9.75116 61.7469 10.8837C60.9983 12.0156 59.2483 12.9785 59.2483 12.9785C59.2483 12.9785 60.5238 13.3443 59.4962 14.2498C58.4694 15.1553 58.6918 15.2688 58.6918 15.2688C58.6918 15.2688 60.134 15.3515 59.552 16.2577C58.9701 17.1639 58.5803 17.5031 58.5803 17.5031C58.5803 17.5031 60.1078 17.3594 59.9412 18.3217C59.7745 19.2839 58.302 19.8761 58.302 19.8761C58.302 19.8761 59.9412 20.1025 59.8854 21.0087C59.8296 21.9142 58.4129 22.2232 58.4129 22.2232C58.4129 22.2232 59.9108 23.0726 59.4398 23.5821C58.9694 24.0917 57.4115 24.5703 57.4115 24.5703C57.4115 24.5703 59.0252 25.2494 58.4129 25.8157C57.8006 26.382 56.8296 26.9174 56.8296 26.9174C56.8296 26.9174 57.1636 28.8679 56.6071 28.9814C56.0506 29.0949 55.4391 28.9814 55.4391 28.9814C55.4391 28.9814 56.1622 30.3704 55.9397 30.9059C55.7173 31.442 54.0782 31.2149 54.0782 31.2149C54.0782 31.2149 54.8571 32.6867 54.1339 32.857C53.4108 33.0266 52.8288 32.8002 52.8288 32.8002C52.8288 32.8002 53.1071 34.4114 52.5506 34.8074C51.9941 35.2034 51.4376 34.4114 51.4376 34.4114C51.4376 34.4114 51.9087 36.249 51.1036 36.249C50.2992 36.249 49.242 35.9098 49.242 35.9098C49.242 35.9098 49.49 37.2989 48.8529 37.4951C48.2158 37.6913 47.0471 37.0424 47.0471 37.0424C47.0471 37.0424 47.1842 38.7097 46.4348 38.5961C45.6862 38.4833 44.5733 37.917 44.5733 37.917C44.5733 37.917 44.2138 40.0111 43.4906 39.5591C42.7675 39.1063 41.5732 37.4951 41.5732 37.4951L41.8634 29.6256Z" fill="white"/>
<path d="M52.3128 7.63885C52.6916 7.43 54.2784 6.6752 53.6744 7.96543C53.4685 8.40626 53.0621 8.92348 52.6854 9.50657C51.3507 11.5726 49.8066 13.4474 49.6854 16.0103C49.5848 18.1121 49.6661 20.5174 49.1895 22.5856C48.6778 24.8065 47.6737 26.6693 45.1433 28.2834C43.6874 29.212 41.9436 29.4432 40.3196 28.9443C40.0407 28.8587 39.8816 29.1054 39.8816 29.1054L39.7666 29.3591C39.7666 29.3591 39.9374 29.4397 40.2404 29.533C41.9395 30.0551 43.7652 29.8119 45.2894 28.8405C48.8403 26.5761 49.8094 23.2142 49.9912 19.2979C50.0401 18.2285 50.0352 17.2214 50.078 16.3446C50.1971 13.8475 51.6131 11.675 52.9147 9.65865C53.299 9.06294 53.7508 8.53451 53.9623 8.08458C54.4265 7.09289 53.8555 6.8469 53.2694 6.96464C52.8975 7.03963 52.5945 7.32908 52.2612 7.5127L52.3128 7.63885Z" fill="black"/>
<path d="M62.019 4.77527C62.0133 4.78019 57.9467 8.23249 54.9205 9.43582C54.9205 9.43582 54.2442 10.1289 55.0204 9.93692C57.2793 9.03845 60.3875 6.54347 62.2064 4.81872L62.019 4.77527Z" fill="black"/>
<path d="M61.6922 7.17285C61.6922 7.17285 57.8244 10.108 53.8443 11.7101C53.8443 11.7101 52.9559 12.4039 53.8272 12.1712C56.456 11.1123 59.6405 9.06862 61.8651 7.22892L61.6922 7.17285Z" fill="black"/>
<path d="M59.7924 10.3661C59.7738 10.3773 54.6967 13.4035 52.9845 13.5696C52.9845 13.5696 52.1298 13.9403 53.0107 13.8878C54.9095 13.817 58.4584 11.2849 59.9309 10.4053L59.7924 10.3661Z" fill="black"/>
<path d="M58.1425 13.0132C58.139 13.0153 54.679 15.4423 51.3904 15.6105C50.9207 15.6021 51.0412 16.0513 51.365 16.0499C53.604 15.9357 56.0358 14.8017 58.3016 13.0391L58.1425 13.0132Z" fill="black"/>
<path d="M57.4616 15.4229C57.4616 15.4229 57.0077 15.7452 56.0573 16.0809C55.0959 16.4201 53.5856 16.8547 51.4003 17.0649C51.4003 17.0649 51.0415 17.4034 51.4437 17.4665C52.932 17.3228 55.5532 16.9542 57.5753 15.5336L57.4616 15.4229Z" fill="black"/>
<path d="M58.3874 17.1632C58.3874 17.1632 58.3715 17.1849 58.333 17.2235C58.0003 17.5648 57.4087 17.7666 56.9927 17.9327C55.8763 18.3771 53.9411 18.9153 50.6883 18.9433C50.6883 18.9433 50.2544 19.2699 50.6904 19.3029C52.7931 19.5552 56.999 18.8228 58.5286 17.2592C58.5858 17.2003 58.6092 17.3272 58.6092 17.3272L58.3874 17.1632Z" fill="black"/>
<path d="M57.6382 21.7972C57.6141 21.779 55.2697 19.7662 50.1133 20.5077C49.6526 20.603 50.0727 20.945 50.0727 20.945C52.2642 20.6297 55.1471 20.7656 57.2359 21.7566C57.9825 22.1112 57.6382 21.7972 57.6382 21.7972Z" fill="black"/>
<path d="M56.8373 24.254C56.8302 24.2488 53.7113 22.1095 49.6148 21.9385L49.4854 22.4186C51.6906 22.5111 54.7126 23.0458 56.5611 24.362L56.8373 24.254Z" fill="black"/>
<path d="M56.0159 26.847C56.0102 26.8411 55.2996 26.0691 54.0558 25.2835C52.8134 24.4978 51.2294 23.6947 49.0854 23.6372L48.8809 24.1173C51.2459 24.1811 53.4381 24.9877 55.3217 26.4889C56.0097 27.0377 56.0159 26.847 56.0159 26.847Z" fill="black"/>
<path d="M54.7134 28.5494C53.2155 26.8065 50.9255 25.1602 48.7017 24.725L48.4131 25.1196C50.5371 25.5351 53.3222 27.1141 54.783 28.8137L54.7134 28.5494Z" fill="black"/>
<path d="M53.4489 30.6911C52.3118 28.7217 50.0825 26.5631 47.829 26.1006L47.6162 26.4952C49.6782 26.9185 51.537 28.6096 52.8201 30.2313C53.3573 30.9111 53.4489 30.6911 53.4489 30.6911Z" fill="black"/>
<path d="M52.4847 32.5976C52.4819 32.5916 52.004 31.5337 51.0481 30.3479C50.0935 29.1628 48.7712 27.8368 46.8442 27.3175L46.4971 27.6672C48.7629 28.2791 50.6252 30.1293 51.8876 32.0573C52.3711 32.7966 52.4847 32.5976 52.4847 32.5976Z" fill="black"/>
<path d="M50.8158 33.7601C50.8158 33.7601 50.6891 33.4574 50.4508 32.992C49.4762 31.0928 47.9811 28.7583 45.835 28.246L45.417 28.5186C47.5885 29.0365 49.1284 31.3219 50.5637 33.5877L50.8158 33.7601Z" fill="black"/>
<path d="M48.9612 35.6687C48.9612 35.6687 48.632 34.5277 47.9426 33.098C47.2545 31.6732 46.3207 29.9471 44.8654 28.7837L44.3799 29.0836C46.2904 30.1952 48.9612 35.6687 48.9612 35.6687Z" fill="black"/>
<path d="M47.0451 37.042C47.0451 37.042 46.8151 35.7594 46.2524 34.1664C45.6911 32.5804 44.9115 30.5866 43.5664 29.3328L43.1436 29.5795C44.9404 31.2531 46.1677 34.7432 46.895 37.0931L47.0451 37.042Z" fill="black"/>
<path d="M53.4828 20.7034C53.4828 20.7034 53.6867 21.2045 53.6633 21.8367C53.5235 25.6072 51.5448 28.8591 48.4215 30.9546C42.4518 34.9605 41.9111 34.7755 41.9111 34.7755V35.1357C41.9111 35.1357 42.5255 34.9809 48.7273 31.0758C52.2108 28.8822 53.7142 25.7081 53.8582 21.8472C53.8823 21.1877 53.6757 20.6698 53.6757 20.6698L53.4828 20.7034Z" fill="black"/>
<path fill-rule="evenodd" clip-rule="evenodd" d="M36.3987 20.1789C36.6087 20.0548 36.867 19.8712 37.0867 19.6673L37.1928 19.7794C37.6728 21.4551 38.7988 25.4849 38.7988 25.4849C38.7988 25.4849 25.9021 27.9974 26.6569 25.3455C27.4117 22.6928 29.7044 20.3086 30.1163 19.8895L30.2237 19.895C30.2953 20.3275 30.5708 20.7403 31.1845 20.3884C32.2823 19.7605 32.2823 19.4108 32.2823 19.4108C32.2823 19.4108 32.8305 20.3884 33.7224 20.2483C34.6142 20.1081 34.7513 19.5502 34.7513 19.5502C34.7513 19.5502 35.5757 20.6674 36.3987 20.1789Z" fill="white"/>
<path d="M31.9072 22.2992C31.6076 22.4176 31.2378 22.6615 30.9272 22.6321C30.3542 22.5795 30.2033 21.9607 30.2061 21.4351H30.3617C30.3617 22.2712 31.0752 22.4015 31.702 22.234C31.8376 22.1976 31.9485 22.0658 32.0642 21.9887C32.0642 21.9887 32.2509 23.197 32.9506 23.2229C33.4107 23.2397 34.0415 22.0686 34.0498 22.056L34.1207 22.2109C34.1207 22.2109 33.9864 22.5564 33.7605 22.8571C33.5402 23.1507 33.3893 23.4535 33.1435 23.5761C32.4052 23.9433 32.0642 22.6076 31.9072 22.2992Z" fill="black"/>
<path d="M33.7429 20.3184C33.7429 20.3709 33.8772 21.9934 34.2836 22.2884C34.5026 22.4475 34.9006 22.1244 35.0219 21.9934C35.3455 21.6478 35.8214 21.1538 36.0225 20.7445L36.0315 20.9092C35.4144 22.1651 33.9764 24.0118 33.6479 21.2862C33.5859 20.7802 33.5859 20.3184 33.5859 20.3184H33.7429Z" fill="black"/>
<path d="M34.9185 24.1C34.6671 24.6726 34.1871 25.78 33.3978 25.3167C32.9336 25.0448 32.758 24.5381 32.4488 24.1295L32.3393 24.2066C32.0962 24.503 31.1492 25.5977 30.851 24.7637C30.6698 24.2577 30.6595 23.8085 30.6774 23.5429C30.0748 23.7714 29.1843 23.8814 29.1278 22.9086C29.1235 22.8371 28.9219 21.7466 29.3 21.7698C29.3702 21.7742 29.059 22.1286 29.3076 22.8638C29.612 23.765 30.5197 23.531 30.8792 23.0649C30.8792 23.0649 30.8468 23.5905 30.8468 23.8253C30.8468 24.0223 30.9921 24.8584 31.2835 24.7743C31.6402 24.6719 32.1802 23.9739 32.4047 23.6648C32.4047 23.6648 32.455 23.8351 32.5479 23.9578C32.7759 24.2591 33.4453 25.3538 34.0383 24.9144C34.6395 24.4687 34.7559 24.119 34.8641 23.4875C34.8641 23.4875 34.9308 23.8064 34.9997 23.9045C35.6409 24.8121 36.4233 24.6979 36.7911 23.6046C36.8978 23.2878 37.0845 23.0565 37.0845 23.0565C37.0845 23.0565 37.0487 23.3488 36.9323 23.695C36.5066 24.9607 35.7071 25.1912 34.9185 24.1Z" fill="black"/>
<path d="M28.6251 23.6233C28.6154 23.6787 28.5355 24.9318 28.8138 25.2142C29.0355 25.4399 30.3124 24.5611 30.4081 24.4735L30.4736 24.5597C30.4736 24.5597 30.1465 25.018 29.7367 25.311C28.5693 26.1449 28.3407 25.7476 28.4164 24.4377C28.4426 23.9843 28.5129 23.5757 28.5129 23.5757L28.6251 23.6233Z" fill="black"/>
<path fill-rule="evenodd" clip-rule="evenodd" d="M35.8337 48.5809C35.8337 48.5809 40.4116 53.6178 40.6182 54.5598C40.8241 55.5024 40.5493 55.7119 40.1381 55.3973C39.7256 55.0833 40.4116 55.7813 39.6919 55.6418C38.9722 55.5024 38.9033 55.7119 38.9033 55.7119C38.9033 55.7119 38.5259 56.0259 38.3881 56.6195C38.2511 57.2131 38.114 57.8761 37.771 57.457C37.4274 57.0379 37.154 58.5041 36.7759 58.6092C36.3991 58.7136 35.6443 58.3302 35.6106 58.6442C35.5768 58.9582 35.6794 59.5168 34.9246 59.5869C34.1698 59.6569 34.1016 59.8315 34.1016 59.8315C34.1016 59.8315 33.5527 60.669 32.6608 60.5645C31.7689 60.4601 31.6312 59.5525 31.1167 59.692C30.6023 59.8315 30.6711 60.2506 30.0189 59.9366C29.3667 59.6226 29.1615 58.9589 28.7152 59.0991C28.2689 59.2392 27.7207 58.7851 27.6518 58.401C27.583 58.017 27.3777 58.4361 26.9314 58.052C26.4852 57.668 26.554 56.9699 26.554 56.9699C26.554 56.9699 25.3054 57.4935 25.3054 56.7604C25.3054 56.0273 25.2159 56.0273 25.2159 56.0273C25.2159 56.0273 23.501 56.6903 24.2551 55.0153C25.0093 53.3403 28.543 48.7323 28.543 48.7323L35.8337 48.5809Z" fill="#F2F2F2"/>
<path d="M32.7593 60.5532L32.5651 60.5356L31.4756 49.5451L31.9859 49.5227L32.7593 60.5532Z" fill="black"/>
<path d="M35.1467 59.2487L35.1363 59.74L32.084 51.3979L32.502 51.0531L35.1467 59.2487Z" fill="black"/>
<path d="M36.8307 58.6168L36.2239 57.8214L32.6592 50.9091L33.279 50.9427L36.8307 58.6168Z" fill="black"/>
<path d="M37.8884 56.6705L37.6556 56.578L34.21 51.2832L34.7189 51.1346L37.8884 56.6705Z" fill="black"/>
<path d="M38.6748 55.006L38.7623 55.402L35.5674 51.1115L36.033 50.9573L38.6748 55.006Z" fill="black"/>
<path d="M39.974 54.7219L39.7536 54.6868L37.0752 51.5716L37.5731 51.4055L39.974 54.7219Z" fill="black"/>
<path d="M30.0759 59.9232L29.8838 59.879L31.1372 50.9434L31.6056 50.9875L30.0759 59.9232Z" fill="black"/>
<path d="M28.1923 59.1088L28.0518 58.9764L30.3768 51.3373L30.8335 51.4298L28.1923 59.1088Z" fill="black"/>
<path d="M27.3539 57.2675L27.2988 57.1582L29.4628 51.3636L29.9524 51.473L27.3539 57.2675Z" fill="black"/>
<path d="M26.0008 56.2704L25.9209 56.1309L28.3541 51.3484L28.8686 51.4886L26.0008 56.2704Z" fill="black"/>
<path d="M24.6874 55.4731L24.6543 55.3225L27.2955 51.1343L27.8031 51.285L24.6874 55.4731Z" fill="black"/>
<path fill-rule="evenodd" clip-rule="evenodd" d="M42.58 45.2004L44.5332 50.0285L43.9009 50.3887C41.8816 47.1649 40.5166 46.1452 40.5166 46.1452L42.58 45.2004Z" fill="white"/>
<path fill-rule="evenodd" clip-rule="evenodd" d="M23.1105 45.2004L21.0781 50.1084L21.8688 50.388C23.8874 47.1642 25.1732 46.1445 25.1732 46.1445L23.1105 45.2004Z" fill="white"/>
<path d="M24.4506 46.4473C24.4726 46.2419 24.463 46.0786 24.463 46.0786C24.463 46.0786 24.4313 46.251 24.4506 46.4473Z" fill="#6C3A00" stroke="black" stroke-width="1.34712" stroke-miterlimit="3.8637"/>
<path d="M29.9385 49.4603C30.112 49.0812 30.227 48.7322 30.227 48.7322C30.227 48.7322 30.0259 49.0896 29.9385 49.4603Z" fill="#6C3A00" stroke="black" stroke-width="1.34712" stroke-miterlimit="3.8637"/>
<path d="M35.6946 48.8738C35.4825 48.5311 35.2656 48.3566 35.4391 48.5913C35.5163 48.6951 35.6023 48.7897 35.6946 48.8738Z" fill="#6C3A00" stroke="black" stroke-width="1.34712" stroke-miterlimit="3.8637"/>
<path d="M23.9152 47.2652C23.2981 47.3352 23.5722 47.1951 23.4345 46.4978C23.2967 45.7997 22.4056 46.0086 22.0626 45.6596C21.7196 45.3105 21.9255 45.1711 22.0626 44.752C22.1996 44.3336 21.8567 43.8444 21.8567 43.8444C21.8567 43.8444 21.5825 43.4947 21.9255 43.0069C22.2685 42.5184 23.1597 42.2388 23.1597 42.2388L42.0944 43.0069C42.0944 43.0069 43.1226 44.1247 43.1226 45.1711C43.1226 46.2174 42.3678 45.9385 42.3678 45.9385L42.0255 45.5201C42.0255 45.5201 42.4367 46.2188 42.1626 46.4985C41.8885 46.7767 41.2707 46.2875 41.2707 46.2875C41.2707 46.2875 41.4305 46.9379 41.1336 47.1257C40.584 47.4747 40.0358 46.3569 40.0358 46.3569C40.0358 46.3569 40.3781 47.2652 40.1047 47.4747C39.8306 47.6843 39.3106 47.3542 39.3106 47.3542C39.3106 47.3542 39.4188 47.8938 39.1447 47.9632C38.8705 48.0326 38.5276 48.0333 38.5276 48.0333L38.1839 47.4053C38.1839 47.4053 38.6639 48.383 38.0468 48.7327C37.4821 49.0523 37.0868 47.8945 37.0868 47.8945C37.0868 47.8945 37.2438 49.2906 36.8313 49.3606C36.4959 49.4174 35.8995 48.8806 35.4966 48.5126C35.7865 48.9829 36.2624 50.133 35.509 50.6173C34.8478 51.0413 34.2734 49.9192 34.2734 49.9192L33.8616 49.0116C33.8616 49.0116 34.1357 50.2682 33.1067 50.1288C32.991 50.1133 32.8643 50.0342 32.7424 49.9297C32.6708 50.1232 32.5337 50.2682 32.2844 50.2682C31.5303 50.2682 31.5296 49.1511 31.5296 49.1511C31.5296 49.1511 31.3237 50.3376 30.3636 50.2682C29.8781 50.2325 29.887 49.8821 29.8588 49.3004C29.4958 49.7167 29.1811 50.1302 29.0599 50.3033C28.7169 50.7918 28.2369 49.0817 28.2369 49.0817L28.3058 47.8251C28.3058 47.8251 27.9628 48.6619 27.4821 48.7334C27.1322 48.7839 27.292 48.3543 27.4042 48.116C27.3195 48.2281 27.146 48.3739 26.7961 48.4524C26.179 48.5918 26.522 46.9869 26.522 46.9869C26.522 46.9869 25.9738 47.6149 25.6301 47.685C25.2865 47.755 25.356 46.4277 25.356 46.4277C25.356 46.4277 25.2872 47.1264 24.8078 46.9869C24.5551 46.914 24.4738 46.6666 24.4524 46.448C24.4159 46.7795 24.2961 47.2224 23.9152 47.2652Z" fill="white"/>
<path d="M53.4318 59.6207C53.3678 59.6362 53.2934 59.6537 53.2073 59.6684C51.6666 59.9515 50.7479 59.1652 50.1811 57.615C49.418 55.5237 48.4869 52.7161 48.1645 51.7371C48.0667 51.6263 48.0068 51.4798 48.0068 51.3193C48.0068 50.9724 48.283 50.6914 48.6239 50.6914C48.9648 50.6914 49.241 50.9717 49.241 51.3193C49.241 51.3635 49.236 51.4077 49.2272 51.4504C49.5661 52.4785 50.4676 55.1922 51.21 57.226C51.5826 58.2471 52.4848 58.6718 52.9786 58.5688C53.0957 58.5184 53.3664 58.4412 53.5089 58.4412C53.832 58.4412 53.9945 58.6977 54.0158 59.025C54.0337 59.2921 53.6811 59.5429 53.4318 59.6207Z" fill="#F4B21B"/>
<path d="M56.9075 50.1975H57.4564C57.9317 50.1975 58.1982 50.5086 58.1982 50.9922C58.1982 51.4611 57.9544 51.8444 57.4985 51.8668H56.8208C57.1148 52.7001 57.8972 53.2966 58.818 53.2966C59.9895 53.2966 60.9393 52.3294 60.9393 51.1373C60.9393 49.9452 59.9895 48.9787 58.818 48.9787C57.9778 48.978 57.2512 49.4756 56.9075 50.1975ZM6.00504 51.0721L5.92032 51.0616C5.92032 51.0616 6.56702 50.9943 7.27088 50.278C7.76124 49.7783 8.57943 47.5658 9.8198 46.148C11.4562 44.2768 12.4954 43.7049 12.4954 43.7049L11.9259 41.8253C11.9259 41.8253 12.6958 41.5562 14.3846 41.5562C16.0733 41.5562 19.0705 42.2332 19.0705 42.2332L13.9624 46.7556L13.2496 45.3806C13.2496 45.3806 12.2888 46.7073 11.6717 47.9639C10.8556 49.6242 11.0512 49.6059 11.045 50.2066L45.5349 50.1998C45.8648 48.9587 46.9812 48.0448 48.3056 48.0448C49.6299 48.0448 50.7457 48.958 51.0756 50.1991H52.4275C52.5032 49.2923 53.2505 48.5816 54.161 48.5816H56.0749C56.287 48.5816 56.4895 48.6201 56.6775 48.6903C57.2457 48.1751 57.9957 47.8612 58.8173 47.8612C60.5949 47.8612 62.0364 49.328 62.0364 51.1369C62.0364 52.9464 60.5949 54.4133 58.8173 54.4133C57.8683 54.4133 57.0164 53.9956 56.4268 53.3326C56.3132 53.3557 56.1947 53.3683 56.0742 53.3683H54.1603C53.2898 53.3683 52.568 52.7179 52.4413 51.8678H51.0356C50.6616 53.0396 49.581 53.8862 48.3049 53.8862C47.0294 53.8862 45.9488 53.0403 45.5741 51.8706L11.0423 51.8818C11.0622 52.5413 10.8301 52.4712 11.6704 54.1813C12.2874 55.4379 13.2482 56.7638 13.2482 56.7638L13.961 55.3895L19.0692 59.9113C19.0692 59.9113 16.0719 60.5876 14.3832 60.5876C12.6945 60.5876 11.9245 60.3192 11.9245 60.3192L12.4941 58.4395C12.4941 58.4395 11.4548 57.867 9.81842 55.9957C8.57806 54.5786 7.76056 52.3654 7.26951 51.8664C6.56565 51.1502 5.91895 51.0822 5.91895 51.0822L6.00504 51.0721Z" fill="#FFB81C"/>
<path d="M43.2685 42.2733C43.3332 42.2565 43.4083 42.2404 43.493 42.2243C45.0351 41.9411 45.9538 42.7282 46.5199 44.2784C47.283 46.3697 48.2148 49.1773 48.5371 50.1556C48.6349 50.2671 48.6942 50.4128 48.6942 50.574C48.6942 50.9203 48.418 51.202 48.0771 51.202C47.7362 51.202 47.46 50.921 47.46 50.574C47.46 50.5299 47.465 50.4857 47.4738 50.4437C47.1349 49.4148 46.2327 46.7005 45.491 44.6674C45.1184 43.6456 44.2155 43.2216 43.7224 43.3246C43.6046 43.375 43.3346 43.4514 43.1921 43.4514C42.8698 43.4514 42.7065 43.1956 42.6852 42.8683C42.668 42.602 43.0206 42.3511 43.2685 42.2733Z" fill="#F4B21B"/>
<path d="M23.7424 25.3798H41.4767C41.5201 25.3798 41.5634 25.3847 41.6055 25.3938H43.0421L42.0944 26.3581V45.1013C42.0944 45.4482 41.8183 45.7292 41.4774 45.7292L32.7163 49.6735L23.7431 45.7292C23.4022 45.7292 23.126 45.4482 23.126 45.1013V26.2537L22.2803 25.3931H23.6143C23.6556 25.3847 23.699 25.3798 23.7424 25.3798Z" fill="white"/>
<mask id="mask0_441_1146" style="mask-type:luminance" maskUnits="userSpaceOnUse" x="22" y="25" width="22" height="25">
<path d="M23.7424 25.3798H41.4767C41.5201 25.3798 41.5634 25.3847 41.6055 25.3938H43.0421L42.0944 26.3581V45.1013C42.0944 45.4482 41.8183 45.7292 41.4774 45.7292L32.7163 49.6735L23.7431 45.7292C23.4022 45.7292 23.126 45.4482 23.126 45.1013V26.2537L22.2803 25.3931H23.6143C23.6556 25.3847 23.699 25.3798 23.7424 25.3798Z" fill="white"/>
</mask>
<g mask="url(#mask0_441_1146)">
<path d="M40.4545 31.8368H39.168V47.0554H40.4545V31.8368Z" fill="#AF272F"/>
<path d="M37.6156 31.8368H36.3291V49.5686H37.6156V31.8368Z" fill="#AF272F"/>
<path d="M34.779 31.8368H33.4932V49.5686H34.779V31.8368Z" fill="#AF272F"/>
<path d="M31.9437 31.8368H30.6572V49.5686H31.9437V31.8368Z" fill="#AF272F"/>
<path d="M29.1058 31.8368H27.8193V48.3471H29.1058V31.8368Z" fill="#AF272F"/>
<path d="M26.267 31.8367H24.9805V47.0553H26.267V31.8367Z" fill="#AF272F"/>
</g>
<path d="M43.0402 25.3934C43.0402 25.3934 42.0925 26.2127 42.0925 27.0516C42.0925 27.819 42.0925 32.2805 42.0925 32.2805H23.1241V26.9479C23.1241 26.2134 22.2783 25.3941 22.2783 25.3941L43.0402 25.3934Z" fill="#002F6C"/>
<path d="M49.555 48.3534C50.7761 45.3034 52.429 42.4131 54.659 40.422C58.6846 36.8275 63.7638 37.721 63.551 42.5358C63.396 46.0455 62.8023 47.101 59.6687 50.1069C59.4752 50.334 59.323 50.5092 59.0675 50.5092C58.761 50.5092 58.5771 50.2667 58.5771 49.9548C58.5771 49.802 58.5633 49.6562 58.6611 49.5546L58.688 49.5112C61.8988 46.4527 62.3134 45.6874 62.4546 42.4853C62.5895 39.424 59.3044 37.7603 55.3829 41.2623C53.3381 43.0873 51.7107 45.9131 50.4607 49.0816C50.212 48.7802 49.9035 48.5314 49.555 48.3534ZM46.1445 63.5293C46.1445 63.5293 46.4359 59.4063 47.6335 54.4738L47.7899 53.8458C47.9455 53.8718 48.1046 53.8858 48.2671 53.8858C48.4903 53.8858 48.7079 53.8606 48.9159 53.8115C47.9827 57.2954 47.4379 60.8086 47.2389 63.6099L46.1445 63.5293Z" fill="#CCCCCC"/>
<path fill-rule="evenodd" clip-rule="evenodd" d="M41.1648 50.1634C40.9582 49.354 41.9162 49.0393 42.0932 49.6686C42.2702 50.298 42.4265 52.4222 42.1365 52.4867C41.341 52.6668 41.1648 50.1634 41.1648 50.1634Z" fill="white"/>
<path fill-rule="evenodd" clip-rule="evenodd" d="M23.243 50.042C23.4496 49.2333 22.4916 48.8779 22.3146 49.5073C22.1383 50.1367 21.9813 52.4214 22.2706 52.4866C23.0667 52.6667 23.243 50.042 23.243 50.042Z" fill="white"/>
<path fill-rule="evenodd" clip-rule="evenodd" d="M21.789 49.8394C21.8682 49.0068 20.8744 48.9696 20.7966 49.6193C20.7188 50.2697 20.8028 52.6224 21.3187 52.532C21.9523 52.4213 21.789 49.8394 21.789 49.8394Z" fill="white"/>
<path fill-rule="evenodd" clip-rule="evenodd" d="M19.3741 50.0434C19.1957 49.227 20.0849 48.9466 20.2398 49.5816C20.3948 50.2165 20.6717 52.6667 20.2667 52.5202C19.6792 52.3085 19.3741 50.0434 19.3741 50.0434Z" fill="white"/>
<path fill-rule="evenodd" clip-rule="evenodd" d="M42.6191 50.0399C42.5399 49.2073 43.5337 49.049 43.6116 49.6993C43.6894 50.3497 43.5172 52.4711 43.2217 52.4901C42.4091 52.5405 42.6191 50.0399 42.6191 50.0399Z" fill="white"/>
<path fill-rule="evenodd" clip-rule="evenodd" d="M43.9837 50.0862C43.9754 49.2501 44.9802 49.18 45.0023 49.8346C45.0236 50.4899 44.8659 52.6548 44.3755 52.5805C43.7578 52.4859 43.9837 50.0862 43.9837 50.0862Z" fill="white"/>
<path d="M20.5635 37.8055C20.5635 37.8055 21.4815 32.3376 22.3176 29.5321L22.7777 29.6127C21.945 32.4062 20.715 37.8517 20.715 37.8517L20.5635 37.8055Z" fill="black"/>
<path d="M37.1182 19.637C36.893 19.8528 36.6189 20.0476 36.3992 20.178C35.5761 20.6665 34.7518 19.55 34.7518 19.55C34.7518 19.55 34.6147 20.1086 33.7228 20.2481C32.831 20.3876 32.2827 19.4106 32.2827 19.4106C32.2827 19.4106 32.2827 19.7596 31.1849 20.3882C30.5307 20.7625 30.2607 20.2698 30.2132 19.8101C30.5589 19.3475 30.8874 18.5563 30.7049 17.8751C30.499 17.1069 30.156 16.479 29.676 15.6408C29.1959 14.8026 29.1959 13.3371 30.499 12.7786C31.802 12.22 33.541 12.1044 35.3007 13.0575C36.3014 13.5993 36.5328 13.9027 37.7022 14.1046C37.4701 14.34 37.0162 14.7325 36.6037 15.6401C36.2139 16.5007 36.665 18.051 37.1182 19.637Z" fill="white"/>
<path fill-rule="evenodd" clip-rule="evenodd" d="M31.3231 15.5014C31.3231 15.5014 30.8397 14.9099 30.2942 14.3149C29.3334 13.2679 30.443 12.7611 30.1571 12.9994C29.7839 13.3099 29.1964 13.1985 28.5104 13.2679C27.8245 13.3372 26.7267 14.1754 26.6585 14.8034C26.5903 15.4313 26.6585 16.2695 27.0015 16.8281C27.3445 17.3867 27.0704 16.2002 27.5504 16.2695C28.0304 16.3389 30.0201 16.9676 30.5001 16.8975C30.9801 16.8274 31.3231 15.5014 31.3231 15.5014Z" fill="white"/>
<path d="M27.1631 16.3805C27.1631 16.3805 27.1823 16.3237 27.2223 16.241C27.8256 15.0089 28.7898 16.0931 29.7974 15.8366L29.5818 15.9642C28.9854 16.1162 28.7402 16.0574 28.1693 15.9165C27.8043 15.8261 27.5295 16.1646 27.422 16.4723L27.1631 16.3805Z" fill="black"/>
<path d="M30.6787 13.6841C30.6787 13.5166 30.7806 13.3694 30.9369 13.2811L30.8454 13.2804C30.4487 13.2804 30.1009 13.6042 30.2655 13.3947C30.5871 12.984 31.7427 12.8683 32.1897 13.0681C32.6374 13.2685 33.7965 13.7051 33.7965 13.7051C33.7965 13.7051 32.875 13.8159 32.6043 13.6463C32.4542 13.5523 32.0533 13.4977 31.6573 13.4668C31.7841 13.5565 31.7455 13.4325 31.7455 13.5804C31.7455 13.6203 32.0141 13.757 31.6842 13.8922C32.1463 13.8355 32.4893 13.8663 32.4893 13.8663C32.4893 13.8663 32.0306 14.0191 31.6119 14.085C31.5155 14.1403 31.3984 14.1726 31.273 14.1726C31.2097 14.1726 31.1477 14.1642 31.0905 14.1495C30.8391 14.1558 31.0368 14.0619 30.7806 13.9581C30.7166 13.8796 30.6787 13.7857 30.6787 13.6841Z" fill="black"/>
<path d="M44.7249 37.8702C44.7249 37.8702 43.8069 32.4023 42.9708 29.5968L42.5107 29.6774C43.3434 32.4709 44.5734 37.9164 44.5734 37.9164L44.7249 37.8702Z" fill="black"/>
</svg>
