<svg width="64" height="64" viewBox="0 0 64 64" fill="none" xmlns="http://www.w3.org/2000/svg">
<ellipse cx="29.2583" cy="28.8755" rx="2.16259" ry="2.16259" fill="#D6D3D1"/>
<ellipse cx="36.3218" cy="28.8755" rx="2.16259" ry="2.16259" fill="#D6D3D1"/>
<ellipse cx="26.519" cy="34.498" rx="2.16259" ry="2.16259" fill="#D6D3D1"/>
<ellipse cx="34.1597" cy="35.0752" rx="2.16259" ry="2.16259" fill="#D6D3D1"/>
<path d="M61.2349 31.6149C61.2349 32.8472 60.5513 34.1179 59.0994 35.3676C57.6499 36.6153 55.5085 37.7729 52.7973 38.76C47.381 40.7319 39.8487 41.9662 31.4925 41.9662C23.1362 41.9662 15.6039 40.7319 10.1876 38.76C7.47638 37.7729 5.33505 36.6153 3.88552 35.3676C2.43363 34.1179 1.75 32.8472 1.75 31.6149C1.75 30.3826 2.43363 29.112 3.88552 27.8623C5.33505 26.6146 7.47638 25.457 10.1876 24.4699C15.6039 22.498 23.1362 21.2637 31.4925 21.2637C39.8487 21.2637 47.381 22.498 52.7973 24.4699C55.5085 25.457 57.6499 26.6146 59.0994 27.8623C60.5513 29.112 61.2349 30.3826 61.2349 31.6149Z" stroke="white" stroke-width="1.5"/>
<path d="M40.122 37.1352C35.9447 44.3954 31.1144 50.3272 26.7056 54.0547C24.4986 55.9206 22.4294 57.2066 20.6285 57.8468C18.8242 58.4881 17.3886 58.4504 16.3289 57.8407C15.2693 57.231 14.5152 56.0088 14.1629 54.1266C13.8113 52.2479 13.8832 49.8127 14.3872 46.967C15.394 41.2821 18.0948 34.125 22.2722 26.8648C26.4495 19.6046 31.2797 13.6728 35.6886 9.94532C37.8956 8.07944 39.9648 6.79342 41.7656 6.15325C43.57 5.51185 45.0055 5.54959 46.0652 6.15931C47.1249 6.76902 47.879 7.99118 48.2313 9.87342C48.5829 11.7521 48.5109 14.1873 48.007 17.033C47.0002 22.7179 44.2993 29.875 40.122 37.1352Z" stroke="white" stroke-width="1.5"/>
<path d="M37.6099 16.5749L40.2833 19.4555L43.9001 17.7972L41.9356 21.2358L44.609 24.1164L40.7215 23.361L38.757 26.7997L38.3188 22.8942L34.4313 22.1388L38.048 20.4804L37.6099 16.5749Z" fill="#D6D3D1"/>
<path d="M16.2613 29.0389L18.8764 31.8738L22.4549 30.2546L20.4925 33.6259L23.1076 36.4609L19.2798 35.7096L17.3174 39.0809L16.914 35.2452L13.0862 34.4938L16.6647 32.8746L16.2613 29.0389Z" fill="#D6D3D1"/>
</svg>
