<svg width="32" height="32" viewBox="0 0 32 32" fill="none" xmlns="http://www.w3.org/2000/svg">
<ellipse cx="15.1291" cy="14.4377" rx="1.08129" ry="1.08129" fill="#D6D3D1"/>
<ellipse cx="18.6609" cy="14.4377" rx="1.08129" ry="1.08129" fill="#D6D3D1"/>
<ellipse cx="13.7595" cy="17.249" rx="1.08129" ry="1.08129" fill="#D6D3D1"/>
<ellipse cx="17.5798" cy="17.5376" rx="1.08129" ry="1.08129" fill="#D6D3D1"/>
<path d="M30.7425 15.8075C30.7425 16.2734 30.4855 16.814 29.8051 17.3996C29.127 17.9832 28.1021 18.5428 26.7704 19.0276C24.1131 19.995 20.3923 20.6081 16.2462 20.6081C12.1001 20.6081 8.37938 19.995 5.72209 19.0276C4.39037 18.5428 3.36542 17.9832 2.6874 17.3996C2.00701 16.814 1.75 16.2734 1.75 15.8075C1.75 15.3416 2.00701 14.801 2.6874 14.2153C3.36542 13.6317 4.39037 13.0722 5.72209 12.5873C8.37938 11.6199 12.1001 11.0068 16.2462 11.0068C20.3923 11.0068 24.1131 11.6199 26.7704 12.5873C28.1021 13.0722 29.127 13.6317 29.8051 14.2153C30.4855 14.801 30.7425 15.3416 30.7425 15.8075Z" stroke="white" stroke-width="1.5"/>
<path d="M20.236 18.3806C18.1631 21.9831 15.774 24.912 13.6107 26.741C12.5265 27.6576 11.5311 28.2706 10.6887 28.57C9.84276 28.8707 9.25015 28.8247 8.85149 28.5953C8.45283 28.3659 8.1152 27.8767 7.95005 26.9943C7.78556 26.1155 7.81526 24.9469 8.06285 23.5489C8.55687 20.7594 9.88829 17.222 11.9611 13.6194C14.0339 10.0169 16.4231 7.08802 18.5864 5.25903C19.6706 4.34238 20.666 3.72944 21.5084 3.42996C22.3543 3.12926 22.9469 3.17531 23.3456 3.40469C23.7443 3.63407 24.0819 4.12326 24.247 5.0057C24.4115 5.88455 24.3818 7.05309 24.1342 8.45112C23.6402 11.2406 22.3088 14.778 20.236 18.3806Z" stroke="white" stroke-width="1.5"/>
<path d="M19.305 8.28745L20.6417 9.72775L22.4501 8.89858L21.4678 10.6179L22.8045 12.0582L20.8607 11.6805L19.8785 13.3999L19.6594 11.4471L17.7156 11.0694L19.524 10.2402L19.305 8.28745Z" fill="#D6D3D1"/>
<path d="M8.63067 14.5194L9.93818 15.9369L11.7274 15.1273L10.7463 16.813L12.0538 18.2305L10.1399 17.8548L9.15871 19.5405L8.95702 17.6226L7.04311 17.2469L8.83236 16.4373L8.63067 14.5194Z" fill="#D6D3D1"/>
</svg>
