<svg width="32" height="32" viewBox="0 0 32 32" fill="none" xmlns="http://www.w3.org/2000/svg">
<path fill-rule="evenodd" clip-rule="evenodd" d="M11.2597 13.5841C11.2597 13.5841 9.23108 13.3164 9.11985 11.7182C9.00862 10.1199 10.0785 9.41452 10.0785 8.56546C10.0785 7.71639 9.7724 7.27872 8.53582 6.02002C7.29925 4.76132 6.32576 3.89929 4.99241 2.92408C3.65942 1.94852 0.255473 -0.3702 0.0326757 0.322225C-0.189777 1.01465 0.796454 3.24857 0.796454 3.24857C0.796454 3.24857 0.212427 3.54712 0.852238 4.04121C1.49205 4.5353 1.89426 4.79005 1.89426 4.79005C1.89426 4.79005 1.11774 4.8314 1.49205 5.39768C1.86636 5.9636 2.74137 6.44508 2.74137 6.44508C2.74137 6.44508 2.10362 6.628 2.6174 7.08074C3.13083 7.53348 3.01961 7.59024 3.01961 7.59024C3.01961 7.59024 2.29853 7.63159 2.58951 8.08468C2.88049 8.53777 3.07539 8.70738 3.07539 8.70738C3.07539 8.70738 2.31161 8.63554 2.39495 9.11666C2.47828 9.59779 3.21451 9.89389 3.21451 9.89389C3.21451 9.89389 2.39495 10.0071 2.42284 10.4602C2.45073 10.9129 3.15907 11.0674 3.15907 11.0674C3.15907 11.0674 2.4101 11.4921 2.64564 11.7469C2.88083 12.0017 3.65976 12.241 3.65976 12.241C3.65976 12.241 2.85294 12.5805 3.15907 12.8637C3.4652 13.1468 3.95074 13.4145 3.95074 13.4145C3.95074 13.4145 3.78373 14.3897 4.06197 14.4465C4.34021 14.5033 4.64599 14.4465 4.64599 14.4465C4.64599 14.4465 4.28442 15.141 4.39565 15.4088C4.50687 15.6768 5.32644 15.5633 5.32644 15.5633C5.32644 15.5633 4.93698 16.2992 5.29855 16.3843C5.66012 16.4691 5.9511 16.3559 5.9511 16.3559C5.9511 16.3559 5.81198 17.1615 6.09022 17.3595C6.36845 17.5575 6.64669 17.1615 6.64669 17.1615C6.64669 17.1615 6.41116 18.0803 6.81371 18.0803C7.21591 18.0803 7.7445 17.9107 7.7445 17.9107C7.7445 17.9107 7.62053 18.6053 7.93906 18.7034C8.25759 18.8015 8.84195 18.477 8.84195 18.477C8.84195 18.477 8.77343 19.3107 9.14809 19.2539C9.5224 19.1975 10.0789 18.9143 10.0789 18.9143C10.0789 18.9143 10.2586 19.9614 10.6202 19.7354C10.9818 19.509 11.5789 18.7034 11.5789 18.7034L11.2597 13.5841Z" fill="white"/>
<path fill-rule="evenodd" clip-rule="evenodd" d="M11.4339 14.7687C11.4339 14.7687 10.0621 14.953 8.84788 13.6585C7.91881 12.3623 7.35026 10.5687 7.35026 9.71963C7.35026 8.87057 7.50853 8.12918 6.9105 6.4149C5.49977 5.33843 5.6867 5.33623 4.75971 4.96846C3.26707 3.97771 2.56878 3.61191 1.26072 2.38763C0.182477 1.64557 0.796528 3.24861 0.796528 3.24861C0.796528 3.24861 0.212505 3.54717 0.852315 4.04126C1.49212 4.53534 1.89433 4.7901 1.89433 4.7901C1.89433 4.7901 1.11781 4.83145 1.49212 5.39772C1.86644 5.96365 2.74145 6.44512 2.74145 6.44512C2.74145 6.44512 2.1037 6.62804 2.61748 7.08078C3.13091 7.53352 3.01968 7.59029 3.01968 7.59029C3.01968 7.59029 2.2986 7.63164 2.58959 8.08473C2.88056 8.53782 3.07547 8.70742 3.07547 8.70742C3.07547 8.70742 2.31169 8.63558 2.39502 9.11671C2.47836 9.59783 3.21459 9.89394 3.21459 9.89394C3.21459 9.89394 2.39502 10.0071 2.42292 10.4602C2.4508 10.9129 3.15915 11.0675 3.15915 11.0675C3.15915 11.0675 2.41017 11.4922 2.64571 11.7469C2.88091 12.0017 3.65984 12.241 3.65984 12.241C3.65984 12.241 2.85302 12.5806 3.15915 12.8637C3.46528 13.1469 3.95082 13.4146 3.95082 13.4146C3.95082 13.4146 3.78381 14.3898 4.06204 14.4466C4.34028 14.5033 4.64607 14.4466 4.64607 14.4466C4.64607 14.4466 4.2845 15.1411 4.39573 15.4088C4.50695 15.6769 5.32651 15.5633 5.32651 15.5633C5.32651 15.5633 4.93705 16.2992 5.29863 16.3844C5.66021 16.4692 5.95119 16.356 5.95119 16.356C5.95119 16.356 5.81207 17.1616 6.09031 17.3596C6.36854 17.5576 6.64678 17.1616 6.64678 17.1616C6.64678 17.1616 6.41124 18.0804 6.81379 18.0804C7.216 18.0804 7.74458 17.9108 7.74458 17.9108C7.74458 17.9108 7.62062 18.6053 7.93914 18.7034C8.25767 18.8015 8.84204 18.4771 8.84204 18.4771C8.84204 18.4771 8.77351 19.3107 9.14817 19.2539C9.52249 19.1975 10.079 18.9144 10.079 18.9144C10.079 18.9144 10.2587 19.9614 10.6203 19.7354C10.9819 19.509 11.579 18.7034 11.579 18.7034L11.4339 14.7687Z" fill="white"/>
<path d="M6.11345 3.81955C5.92405 3.71512 5.13032 3.33772 5.43232 3.98284C5.53562 4.20325 5.73845 4.46186 5.92681 4.75341C6.59417 5.78644 7.36587 6.72381 7.42682 8.00528C7.4771 9.05619 7.43612 10.2588 7.67475 11.2929C7.93095 12.4034 8.43268 13.3348 9.69784 14.1418C10.4261 14.6061 11.2981 14.7217 12.1097 14.4722C12.2492 14.4295 12.3284 14.5528 12.3284 14.5528L12.3859 14.6797C12.3859 14.6797 12.3001 14.72 12.149 14.7666C11.2994 15.0277 10.3862 14.9061 9.62449 14.4204C7.849 13.2882 7.36415 11.6072 7.27358 9.64909C7.24879 9.11436 7.2512 8.61081 7.23054 8.17244C7.17096 6.9239 6.46297 5.8376 5.8118 4.82945C5.61965 4.53159 5.39375 4.26738 5.28838 4.04241C5.05594 3.54657 5.34141 3.42357 5.63445 3.48244C5.8204 3.51994 5.97227 3.66466 6.13893 3.75647L6.11345 3.81955Z" fill="black"/>
<path d="M1.261 2.3877C1.26343 2.39016 3.29717 4.1163 4.81027 4.71797C4.81027 4.71797 5.14808 5.06454 4.75999 4.96852C3.63051 4.51929 2.07643 3.2718 1.16699 2.40942L1.261 2.3877Z" fill="black"/>
<path d="M1.42432 3.58655C1.42432 3.58655 3.35856 5.0541 5.34824 5.85515C5.34824 5.85515 5.79246 6.20207 5.35685 6.08573C4.04245 5.55625 2.44981 4.53443 1.33789 3.61458L1.42432 3.58655Z" fill="black"/>
<path d="M2.37522 5.18323C2.38452 5.18884 4.92345 6.70194 5.77882 6.78499C5.77882 6.78499 6.20651 6.97036 5.76574 6.94408C4.81601 6.90868 3.04155 5.64263 2.30566 5.20285L2.37522 5.18323Z" fill="black"/>
<path d="M3.19903 6.50671C3.20074 6.50776 4.93079 7.72126 6.57474 7.80536C6.80959 7.80116 6.74898 8.02578 6.58783 8.02507C5.46833 7.96796 4.25207 7.40098 3.11914 6.51968L3.19903 6.50671Z" fill="black"/>
<path d="M3.53924 7.71155C3.53924 7.71155 3.76617 7.87274 4.24138 8.04059C4.7221 8.21019 5.47727 8.42745 6.56991 8.53258C6.56991 8.53258 6.74966 8.70183 6.54821 8.73337C5.80406 8.66153 4.49345 8.47721 3.48242 7.76691L3.53924 7.71155Z" fill="black"/>
<path d="M3.07538 8.58167C3.07538 8.58167 3.0833 8.59253 3.10259 8.6118C3.2696 8.78245 3.56471 8.88337 3.77304 8.96642C4.33124 9.18859 5.29854 9.45771 6.92561 9.47172C6.92561 9.47172 7.14221 9.63502 6.92458 9.65149C5.87326 9.77764 3.77029 9.41145 3.00548 8.62967C2.9769 8.60023 2.96484 8.66366 2.96484 8.66366L3.07538 8.58167Z" fill="black"/>
<path d="M3.45045 10.8987C3.4625 10.8896 4.63469 9.88323 7.21252 10.254C7.4429 10.3016 7.23284 10.4726 7.23284 10.4726C6.13711 10.3149 4.69529 10.3829 3.65121 10.8784C3.27793 11.0557 3.45045 10.8987 3.45045 10.8987Z" fill="black"/>
<path d="M3.85254 12.1271C3.856 12.1245 5.41557 11.0549 7.46379 10.9694L7.52853 11.2094C6.42556 11.2557 4.91487 11.523 3.99028 12.1811L3.85254 12.1271Z" fill="black"/>
<path d="M4.26172 13.4236C4.26414 13.4207 4.61985 13.0347 5.24141 12.6419C5.86297 12.249 6.65499 11.8475 7.72662 11.8187L7.82889 12.0588C6.64672 12.0907 5.55029 12.494 4.60848 13.2446C4.26482 13.519 4.26172 13.4236 4.26172 13.4236Z" fill="black"/>
<path d="M4.91305 14.2749C5.66168 13.4034 6.807 12.5803 7.91892 12.3627L8.06321 12.56C7.00122 12.7678 5.60865 13.5572 4.87793 14.407L4.91305 14.2749Z" fill="black"/>
<path d="M5.54541 15.3456C6.1136 14.361 7.22827 13.2817 8.35535 13.0504L8.46141 13.2477C7.43041 13.4594 6.501 14.3049 5.85981 15.1158C5.59087 15.4557 5.54541 15.3456 5.54541 15.3456Z" fill="black"/>
<path d="M6.02734 16.2989C6.02873 16.2959 6.26805 15.7669 6.74567 15.174C7.22294 14.5815 7.88376 13.9185 8.84761 13.6588L9.02116 13.8337C7.88824 14.1396 6.9571 15.0647 6.3259 16.0287C6.08451 16.3984 6.02734 16.2989 6.02734 16.2989Z" fill="black"/>
<path d="M6.86133 16.8803C6.86133 16.8803 6.92469 16.7289 7.04384 16.4962C7.5311 15.5466 8.27869 14.3793 9.35205 14.1232L9.56107 14.2595C8.47497 14.5184 7.70534 15.6612 6.98771 16.7941L6.86133 16.8803Z" fill="black"/>
<path d="M7.79004 17.8345C7.79004 17.8345 7.95464 17.264 8.29934 16.5491C8.64335 15.8367 9.1103 14.9737 9.83826 14.392L10.081 14.5419C9.12545 15.0977 7.79004 17.8345 7.79004 17.8345Z" fill="black"/>
<path d="M8.74609 18.5211C8.74609 18.5211 8.86145 17.8798 9.14313 17.0833C9.42344 16.2903 9.81359 15.2934 10.4861 14.6665L10.6972 14.7899C9.79913 15.6266 9.18549 17.3717 8.82185 18.5467L8.74609 18.5211Z" fill="black"/>
<path d="M5.52918 10.3519C5.52918 10.3519 5.4276 10.6025 5.43931 10.9185C5.50955 12.8038 6.49854 14.4297 8.06019 15.4775C11.0451 17.4805 11.3154 17.3879 11.3154 17.3879V17.5681C11.3154 17.5681 11.0086 17.4906 7.9073 15.5381C6.16555 14.4413 5.41348 12.8542 5.34185 10.9238C5.32946 10.594 5.43276 10.3351 5.43276 10.3351L5.52918 10.3519Z" fill="black"/>
<path fill-rule="evenodd" clip-rule="evenodd" d="M20.741 13.5841C20.741 13.5841 22.7693 13.3164 22.8805 11.7182C22.9917 10.1199 21.9218 9.4145 21.9218 8.56544C21.9218 7.71638 22.228 7.27871 23.4645 6.02001C24.7011 4.7613 25.675 3.89928 27.008 2.92406C28.341 1.94885 31.7449 -0.370215 31.9674 0.32221C32.1898 1.01464 31.2036 3.24855 31.2036 3.24855C31.2036 3.24855 31.7876 3.54711 31.1481 4.0412C30.5083 4.53529 30.1061 4.79004 30.1061 4.79004C30.1061 4.79004 30.8826 4.83139 30.5083 5.39766C30.134 5.96359 29.2587 6.44506 29.2587 6.44506C29.2587 6.44506 29.8964 6.62798 29.3826 7.08072C28.8692 7.53346 28.9804 7.59023 28.9804 7.59023C28.9804 7.59023 29.7015 7.63158 29.4105 8.08467C29.1195 8.53776 28.925 8.70736 28.925 8.70736C28.925 8.70736 29.6888 8.63552 29.6054 9.11665C29.5221 9.59777 28.7859 9.89387 28.7859 9.89387C28.7859 9.89387 29.6054 10.0071 29.5775 10.4602C29.5497 10.9132 28.8416 11.0674 28.8416 11.0674C28.8416 11.0674 29.5903 11.4921 29.3551 11.7469C29.1195 12.0016 28.341 12.241 28.341 12.241C28.341 12.241 29.1474 12.5805 28.8416 12.8637C28.5352 13.1468 28.0496 13.4145 28.0496 13.4145C28.0496 13.4145 28.2163 14.3897 27.9387 14.4465C27.6602 14.5033 27.3544 14.4465 27.3544 14.4465C27.3544 14.4465 27.716 15.141 27.6051 15.4087C27.4938 15.6768 26.6743 15.5633 26.6743 15.5633C26.6743 15.5633 27.0637 16.2992 26.7022 16.3843C26.3402 16.4691 26.0493 16.3559 26.0493 16.3559C26.0493 16.3559 26.1884 17.1615 25.9105 17.3595C25.6326 17.5575 25.354 17.1615 25.354 17.1615C25.354 17.1615 25.5896 18.0803 25.1873 18.0803C24.7851 18.0803 24.2565 17.9107 24.2565 17.9107C24.2565 17.9107 24.3805 18.6052 24.062 18.7034C23.7435 18.8015 23.1591 18.477 23.1591 18.477C23.1591 18.477 23.2273 19.3106 22.8533 19.2539C22.4786 19.1975 21.9222 18.9143 21.9222 18.9143C21.9222 18.9143 21.7428 19.9614 21.3812 19.7353C21.0196 19.509 20.4229 18.7034 20.4229 18.7034L20.741 13.5841Z" fill="white"/>
<path fill-rule="evenodd" clip-rule="evenodd" d="M20.6617 14.813C20.6617 14.813 22.0335 14.9973 23.2477 13.7028C24.1768 12.4066 24.7453 10.613 24.7453 9.76395C24.7453 8.91488 24.6016 8.02163 25.1996 6.30736C26.6103 5.23088 26.4234 5.18313 27.3504 4.81535C28.843 3.8246 29.5268 3.65622 30.8349 2.43194C31.9131 1.68988 31.299 3.29293 31.299 3.29293C31.299 3.29293 31.8831 3.59148 31.2433 4.08557C30.6035 4.57966 30.2012 4.83441 30.2012 4.83441C30.2012 4.83441 30.9778 4.87576 30.6035 5.44204C30.2291 6.00796 29.3541 6.48943 29.3541 6.48943C29.3541 6.48943 29.9919 6.67235 29.4781 7.12509C28.9647 7.57783 29.0759 7.6346 29.0759 7.6346C29.0759 7.6346 29.797 7.67595 29.506 8.12904C29.215 8.58213 29.0201 8.75173 29.0201 8.75173C29.0201 8.75173 29.7839 8.6799 29.7006 9.16102C29.6172 9.64214 28.881 9.93825 28.881 9.93825C28.881 9.93825 29.7006 10.0514 29.6727 10.5045C29.6448 10.9573 28.9364 11.1118 28.9364 11.1118C28.9364 11.1118 29.6854 11.5365 29.4499 11.7913C29.2147 12.046 28.4357 12.2853 28.4357 12.2853C28.4357 12.2853 29.2426 12.6249 28.9364 12.908C28.6303 13.1912 28.1448 13.4589 28.1448 13.4589C28.1448 13.4589 28.3118 14.4341 28.0335 14.4909C27.7553 14.5476 27.4495 14.4909 27.4495 14.4909C27.4495 14.4909 27.8111 15.1854 27.6999 15.4531C27.5886 15.7212 26.7691 15.6077 26.7691 15.6077C26.7691 15.6077 27.1585 16.3435 26.7969 16.4287C26.4354 16.5135 26.1444 16.4003 26.1444 16.4003C26.1444 16.4003 26.2835 17.2059 26.0053 17.4039C25.727 17.6019 25.4488 17.2059 25.4488 17.2059C25.4488 17.2059 25.6843 18.1247 25.2818 18.1247C24.8796 18.1247 24.351 17.9551 24.351 17.9551C24.351 17.9551 24.475 18.6496 24.1564 18.7477C23.8379 18.8459 23.2535 18.5214 23.2535 18.5214C23.2535 18.5214 23.3221 19.355 22.9474 19.2982C22.5731 19.2418 22.0166 18.9587 22.0166 18.9587C22.0166 18.9587 21.8369 20.0057 21.4753 19.7797C21.1137 19.5534 20.5166 18.7477 20.5166 18.7477L20.6617 14.813Z" fill="white"/>
<path d="M25.8864 3.81955C26.0758 3.71512 26.8692 3.33772 26.5672 3.98284C26.4642 4.20325 26.261 4.46186 26.0727 4.75341C25.4053 5.78644 24.6333 6.72381 24.5727 8.00528C24.5224 9.05619 24.563 10.2588 24.3247 11.2929C24.0689 12.4034 23.5668 13.3348 22.3017 14.1418C21.5737 14.6061 20.7018 14.7217 19.8898 14.4722C19.7503 14.4295 19.6708 14.5528 19.6708 14.5528L19.6133 14.6797C19.6133 14.6797 19.6987 14.72 19.8502 14.7666C20.6997 15.0277 21.6126 14.9061 22.3747 14.4204C24.1502 13.2882 24.6347 11.6072 24.7256 9.64909C24.75 9.11436 24.7476 8.61081 24.769 8.17244C24.8285 6.9239 25.5365 5.8376 26.1874 4.82945C26.3795 4.53159 26.6054 4.26738 26.7111 4.04241C26.9432 3.54657 26.6577 3.42357 26.3647 3.48244C26.1787 3.51994 26.0272 3.66466 25.8606 3.75647L25.8864 3.81955Z" fill="black"/>
<path d="M30.7395 2.3877C30.7366 2.39016 28.7033 4.1163 27.1902 4.71797C27.1902 4.71797 26.8521 5.06454 27.2402 4.96852C28.3696 4.51929 29.9237 3.2718 30.8332 2.40942L30.7395 2.3877Z" fill="black"/>
<path d="M30.5761 3.58655C30.5761 3.58655 28.6422 5.0541 26.6521 5.85515C26.6521 5.85515 26.2079 6.20207 26.6436 6.08573C27.958 5.55625 29.5502 4.53443 30.6625 3.61458L30.5761 3.58655Z" fill="black"/>
<path d="M29.6262 5.18323C29.6169 5.18884 27.0783 6.70194 26.2222 6.78499C26.2222 6.78499 25.7949 6.97036 26.2353 6.94408C27.1847 6.90868 28.9592 5.64263 29.6954 5.20285L29.6262 5.18323Z" fill="black"/>
<path d="M28.8012 6.50671C28.7995 6.50776 27.0695 7.72126 25.4252 7.80536C25.1903 7.80116 25.2506 8.02578 25.4125 8.02507C26.532 7.96796 27.7479 7.40098 28.8808 6.51968L28.8012 6.50671Z" fill="black"/>
<path d="M28.4608 7.71155C28.4608 7.71155 28.2339 7.87274 27.7586 8.04059C27.2779 8.21019 26.5228 8.42745 25.4301 8.53258C25.4301 8.53258 25.2507 8.70183 25.4518 8.73337C26.196 8.66153 27.5066 8.47721 28.5176 7.76691L28.4608 7.71155Z" fill="black"/>
<path d="M28.9237 8.58167C28.9237 8.58167 28.9158 8.59253 28.8965 8.6118C28.7301 8.78245 28.4343 8.88337 28.2263 8.96642C27.6682 9.18859 26.7005 9.45771 25.0741 9.47172C25.0741 9.47172 24.8572 9.63502 25.0752 9.65149C26.1265 9.77764 28.2295 9.41145 28.9943 8.62967C29.0229 8.60023 29.0346 8.66366 29.0346 8.66366L28.9237 8.58167Z" fill="black"/>
<path d="M28.5491 10.8987C28.537 10.8896 27.3648 9.88323 24.7866 10.254C24.5563 10.3016 24.7663 10.4726 24.7663 10.4726C25.8621 10.3149 27.3035 10.3829 28.348 10.8784C28.7212 11.0557 28.5491 10.8987 28.5491 10.8987Z" fill="black"/>
<path d="M28.1486 12.1271C28.1451 12.1245 26.5856 11.0549 24.5374 10.9694L24.4727 11.2094C25.5753 11.2557 27.0863 11.523 28.0106 12.1811L28.1486 12.1271Z" fill="black"/>
<path d="M27.7379 13.4236C27.7351 13.4207 27.3798 13.0347 26.7579 12.6419C26.1367 12.249 25.3447 11.8475 24.2727 11.8187L24.1704 12.0588C25.3529 12.0907 26.449 12.494 27.3908 13.2446C27.7348 13.519 27.7379 13.4236 27.7379 13.4236Z" fill="black"/>
<path d="M27.0867 14.2749C26.3377 13.4034 25.1927 12.5803 24.0808 12.3627L23.9365 12.56C24.9985 12.7678 26.3911 13.5572 27.1215 14.407L27.0867 14.2749Z" fill="black"/>
<path d="M26.4544 15.3456C25.8859 14.361 24.7712 13.2817 23.6445 13.0504L23.5381 13.2477C24.5691 13.4594 25.4985 14.3049 26.14 15.1158C26.4086 15.4557 26.4544 15.3456 26.4544 15.3456Z" fill="black"/>
<path d="M25.9723 16.2989C25.9709 16.2959 25.732 15.7669 25.254 15.174C24.7767 14.5815 24.1156 13.9185 23.1521 13.6588L22.9785 13.8337C24.1114 14.1396 25.0426 15.0647 25.6738 16.0287C25.9155 16.3984 25.9723 16.2989 25.9723 16.2989Z" fill="black"/>
<path d="M25.1379 16.8803C25.1379 16.8803 25.0745 16.7289 24.9554 16.4962C24.4681 15.5466 23.7205 14.3793 22.6475 14.1232L22.4385 14.2595C23.5242 14.5184 24.2942 15.6612 25.0118 16.7941L25.1379 16.8803Z" fill="black"/>
<path d="M24.2106 17.8345C24.2106 17.8345 24.046 17.264 23.7013 16.5491C23.3573 15.8367 22.8903 14.9737 22.1627 14.392L21.9199 14.5419C22.8752 15.0977 24.2106 17.8345 24.2106 17.8345Z" fill="black"/>
<path d="M23.2525 18.5211C23.2525 18.5211 23.1375 17.8798 22.8562 17.0833C22.5755 16.2903 22.1857 15.2934 21.5132 14.6665L21.3018 14.7899C22.2002 15.6266 22.8138 17.3717 23.1775 18.5467L23.2525 18.5211Z" fill="black"/>
<path d="M26.4714 10.3519C26.4714 10.3519 26.5733 10.6025 26.5616 10.9185C26.4917 12.8038 25.5024 14.4297 23.9407 15.4775C20.9559 17.4805 20.6855 17.3879 20.6855 17.3879V17.5681C20.6855 17.5681 20.9927 17.4906 24.0936 15.5381C25.8354 14.4413 26.5871 12.8542 26.6591 10.9238C26.6711 10.594 26.5678 10.3351 26.5678 10.3351L26.4714 10.3519Z" fill="black"/>
<path fill-rule="evenodd" clip-rule="evenodd" d="M17.9293 10.0895C18.0343 10.0275 18.1635 9.93568 18.2733 9.8337L18.3264 9.88977C18.5664 10.7276 19.1294 12.7425 19.1294 12.7425C19.1294 12.7425 12.681 13.9988 13.0584 12.6728C13.4358 11.3465 14.5822 10.1543 14.7881 9.94479L14.8418 9.94759C14.8776 10.1638 15.0154 10.3702 15.3222 10.1943C15.8711 9.8803 15.8711 9.70544 15.8711 9.70544C15.8711 9.70544 16.1452 10.1943 16.5912 10.1242C17.0371 10.0541 17.1056 9.77518 17.1056 9.77518C17.1056 9.77518 17.5178 10.3337 17.9293 10.0895Z" fill="white"/>
<path d="M15.6836 11.1497C15.5338 11.2089 15.3489 11.3309 15.1936 11.3162C14.9071 11.2899 14.8316 10.9805 14.833 10.7177H14.9109C14.9109 11.1357 15.2676 11.2009 15.581 11.1171C15.6488 11.0989 15.7042 11.033 15.7621 10.9945C15.7621 10.9945 15.8554 11.5986 16.2053 11.6116C16.4353 11.62 16.7507 11.0344 16.7549 11.0281L16.7903 11.1056C16.7903 11.1056 16.7232 11.2783 16.6103 11.4287C16.5001 11.5755 16.4246 11.7269 16.3017 11.7882C15.9326 11.9718 15.7621 11.3039 15.6836 11.1497Z" fill="black"/>
<path d="M16.6014 10.1593C16.6014 10.1856 16.6686 10.9968 16.8718 11.1443C16.9813 11.2239 17.1803 11.0623 17.2409 10.9968C17.4028 10.824 17.6407 10.577 17.7412 10.3724L17.7457 10.4547C17.4372 11.0827 16.7182 12.006 16.5539 10.6432C16.5229 10.3902 16.5229 10.1593 16.5229 10.1593H16.6014Z" fill="black"/>
<path d="M17.1892 12.0501C17.0635 12.3364 16.8235 12.89 16.4289 12.6584C16.1968 12.5224 16.109 12.2691 15.9544 12.0648L15.8996 12.1033C15.7781 12.2516 15.3046 12.7989 15.1555 12.3819C15.0649 12.1289 15.0597 11.9043 15.0687 11.7715C14.7674 11.8857 14.3221 11.9408 14.2939 11.4544C14.2918 11.4186 14.1909 10.8734 14.38 10.8849C14.4151 10.8872 14.2595 11.0644 14.3838 11.4319C14.536 11.8826 14.9898 11.7655 15.1696 11.5325C15.1696 11.5325 15.1534 11.7953 15.1534 11.9127C15.1534 12.0112 15.226 12.4292 15.3717 12.3872C15.5501 12.336 15.8201 11.987 15.9323 11.8325C15.9323 11.8325 15.9575 11.9176 16.0039 11.9789C16.1179 12.1296 16.4526 12.677 16.7491 12.4573C17.0498 12.2344 17.1079 12.0595 17.162 11.7438C17.162 11.7438 17.1954 11.9033 17.2299 11.9523C17.5504 12.4061 17.9416 12.349 18.1255 11.8023C18.1789 11.6439 18.2722 11.5283 18.2722 11.5283C18.2722 11.5283 18.2543 11.6744 18.1961 11.8475C17.9833 12.4804 17.5835 12.5957 17.1892 12.0501Z" fill="black"/>
<path d="M14.0425 11.8118C14.0377 11.8395 13.9978 12.466 14.1369 12.6072C14.2478 12.7201 14.8862 12.2807 14.9341 12.2368L14.9668 12.2799C14.9668 12.2799 14.8032 12.5091 14.5983 12.6556C14.0146 13.0726 13.9003 12.8739 13.9382 12.219C13.9513 11.9923 13.9864 11.788 13.9864 11.788L14.0425 11.8118Z" fill="black"/>
<path fill-rule="evenodd" clip-rule="evenodd" d="M17.6468 24.2905C17.6468 24.2905 19.9358 26.809 20.0391 27.2799C20.142 27.7513 20.0046 27.856 19.799 27.6987C19.5928 27.5417 19.9358 27.8907 19.5759 27.821C19.2161 27.7513 19.1816 27.856 19.1816 27.856C19.1816 27.856 18.9929 28.013 18.924 28.3098C18.8555 28.6066 18.787 28.9381 18.6155 28.7286C18.4437 28.519 18.307 29.2521 18.1179 29.3046C17.9295 29.3569 17.5521 29.1652 17.5353 29.3222C17.5184 29.4792 17.5697 29.7585 17.1923 29.7935C16.8149 29.8285 16.7808 29.9158 16.7808 29.9158C16.7808 29.9158 16.5063 30.3345 16.0604 30.2823C15.6144 30.2301 15.5456 29.7763 15.2883 29.8461C15.0311 29.9158 15.0655 30.1253 14.7394 29.9684C14.4133 29.8114 14.3107 29.4795 14.0876 29.5496C13.8644 29.6197 13.5903 29.3926 13.5559 29.2006C13.5215 29.0086 13.4188 29.2181 13.1957 29.0261C12.9726 28.834 13.007 28.485 13.007 28.485C13.007 28.485 12.3827 28.7468 12.3827 28.3803C12.3827 28.0137 12.3379 28.0137 12.3379 28.0137C12.3379 28.0137 11.4805 28.3452 11.8575 27.5077C12.2346 26.6702 14.0015 24.3662 14.0015 24.3662L17.6468 24.2905Z" fill="#F2F2F2"/>
<path d="M16.1097 30.2767L16.0125 30.2679L15.4678 24.7727L15.7229 24.7615L16.1097 30.2767Z" fill="black"/>
<path d="M17.3033 29.6244L17.2982 29.87L15.772 25.699L15.981 25.5266L17.3033 29.6244Z" fill="black"/>
<path d="M18.1453 29.3086L17.842 28.9109L16.0596 25.4547L16.3695 25.4715L18.1453 29.3086Z" fill="black"/>
<path d="M18.6742 28.3353L18.5578 28.2891L16.835 25.6417L17.0894 25.5674L18.6742 28.3353Z" fill="black"/>
<path d="M19.0674 27.5031L19.1111 27.7011L17.5137 25.5559L17.7465 25.4788L19.0674 27.5031Z" fill="black"/>
<path d="M19.717 27.3611L19.6068 27.3435L18.2676 25.7859L18.5165 25.7029L19.717 27.3611Z" fill="black"/>
<path d="M14.7679 29.9617L14.6719 29.9396L15.2986 25.4718L15.5328 25.4939L14.7679 29.9617Z" fill="black"/>
<path d="M13.8261 29.5546L13.7559 29.4884L14.9184 25.6688L15.1467 25.7151L13.8261 29.5546Z" fill="black"/>
<path d="M13.4069 28.6339L13.3794 28.5793L14.4614 25.682L14.7062 25.7367L13.4069 28.6339Z" fill="black"/>
<path d="M12.7304 28.1353L12.6904 28.0656L13.907 25.6743L14.1643 25.7444L12.7304 28.1353Z" fill="black"/>
<path d="M12.0737 27.7367L12.0571 27.6614L13.3777 25.5673L13.6315 25.6426L12.0737 27.7367Z" fill="black"/>
<path fill-rule="evenodd" clip-rule="evenodd" d="M21.02 22.6003L21.9966 25.0144L21.6804 25.1945C20.6708 23.5826 19.9883 23.0727 19.9883 23.0727L21.02 22.6003Z" fill="white"/>
<path fill-rule="evenodd" clip-rule="evenodd" d="M11.2852 22.6003L10.269 25.0543L10.6644 25.1941C11.6737 23.5822 12.3166 23.0724 12.3166 23.0724L11.2852 22.6003Z" fill="white"/>
<path d="M11.9553 23.2237C11.9663 23.1211 11.9615 23.0394 11.9615 23.0394C11.9615 23.0394 11.9456 23.1256 11.9553 23.2237Z" fill="#6C3A00" stroke="black" stroke-width="1.34712" stroke-miterlimit="3.8637"/>
<path d="M14.6992 24.7303C14.786 24.5407 14.8435 24.3662 14.8435 24.3662C14.8435 24.3662 14.743 24.5449 14.6992 24.7303Z" fill="#6C3A00" stroke="black" stroke-width="1.34712" stroke-miterlimit="3.8637"/>
<path d="M17.5773 24.4371C17.4712 24.2657 17.3628 24.1785 17.4495 24.2959C17.4881 24.3477 17.5312 24.395 17.5773 24.4371Z" fill="#6C3A00" stroke="black" stroke-width="1.34712" stroke-miterlimit="3.8637"/>
<path d="M11.6876 23.6327C11.379 23.6677 11.5161 23.5977 11.4472 23.249C11.3784 22.9 10.9328 23.0044 10.7613 22.8299C10.5898 22.6554 10.6927 22.5857 10.7613 22.3761C10.8298 22.1669 10.6583 21.9223 10.6583 21.9223C10.6583 21.9223 10.5213 21.7475 10.6927 21.5036C10.8642 21.2593 11.3098 21.1195 11.3098 21.1195L20.7772 21.5036C20.7772 21.5036 21.2913 22.0625 21.2913 22.5857C21.2913 23.1088 20.9139 22.9694 20.9139 22.9694L20.7427 22.7602C20.7427 22.7602 20.9483 23.1095 20.8113 23.2494C20.6742 23.3885 20.3653 23.1439 20.3653 23.1439C20.3653 23.1439 20.4452 23.4691 20.2968 23.563C20.022 23.7375 19.7479 23.1786 19.7479 23.1786C19.7479 23.1786 19.919 23.6327 19.7823 23.7375C19.6453 23.8423 19.3853 23.6772 19.3853 23.6772C19.3853 23.6772 19.4394 23.947 19.3023 23.9817C19.1653 24.0164 18.9938 24.0168 18.9938 24.0168L18.8219 23.7028C18.8219 23.7028 19.0619 24.1916 18.7534 24.3665C18.471 24.5263 18.2734 23.9474 18.2734 23.9474C18.2734 23.9474 18.3519 24.6454 18.1456 24.6804C17.9779 24.7088 17.6797 24.4404 17.4783 24.2564C17.6232 24.4916 17.8612 25.0666 17.4845 25.3088C17.1539 25.5208 16.8667 24.9597 16.8667 24.9597L16.6608 24.5059C16.6608 24.5059 16.7978 25.1342 16.2834 25.0645C16.2255 25.0568 16.1621 25.0172 16.1012 24.965C16.0654 25.0617 15.9968 25.1342 15.8722 25.1342C15.4951 25.1342 15.4948 24.5757 15.4948 24.5757C15.4948 24.5757 15.3918 25.1689 14.9118 25.1342C14.669 25.1164 14.6735 24.9412 14.6594 24.6503C14.4779 24.8585 14.3205 25.0652 14.2599 25.1518C14.0884 25.396 13.8484 24.541 13.8484 24.541L13.8829 23.9127C13.8829 23.9127 13.7114 24.3311 13.471 24.3668C13.2961 24.392 13.376 24.1772 13.4321 24.0581C13.3897 24.1142 13.303 24.1871 13.128 24.2263C12.8195 24.296 12.991 23.4936 12.991 23.4936C12.991 23.4936 12.7169 23.8076 12.545 23.8426C12.3732 23.8776 12.408 23.214 12.408 23.214C12.408 23.214 12.3736 23.5633 12.1339 23.4936C12.0075 23.4571 11.9669 23.3334 11.9562 23.2241C11.938 23.3899 11.878 23.6113 11.6876 23.6327Z" fill="white"/>
<path d="M26.4459 29.8105C26.4139 29.8182 26.3767 29.827 26.3336 29.8343C25.5633 29.9759 25.1039 29.5827 24.8205 28.8076C24.439 27.762 23.9734 26.3582 23.8123 25.8686C23.7634 25.8133 23.7334 25.74 23.7334 25.6598C23.7334 25.4863 23.8715 25.3458 24.0419 25.3458C24.2124 25.3458 24.3505 25.486 24.3505 25.6598C24.3505 25.6819 24.348 25.7039 24.3436 25.7253C24.513 26.2394 24.9638 27.5962 25.335 28.6131C25.5213 29.1237 25.9724 29.336 26.2193 29.2845C26.2778 29.2593 26.4132 29.2207 26.4845 29.2207C26.646 29.2207 26.7272 29.349 26.7379 29.5126C26.7468 29.6462 26.5705 29.7716 26.4459 29.8105Z" fill="#F4B21B"/>
<path d="M28.1838 25.0989H28.4582C28.6958 25.0989 28.8291 25.2544 28.8291 25.4962C28.8291 25.7307 28.7072 25.9223 28.4792 25.9335H28.1404C28.2874 26.3502 28.6786 26.6484 29.139 26.6484C29.7247 26.6484 30.1996 26.1648 30.1996 25.5688C30.1996 24.9727 29.7247 24.4895 29.139 24.4895C28.7189 24.4891 28.3556 24.7379 28.1838 25.0989ZM2.7325 25.5362L2.69014 25.5309C2.69014 25.5309 3.01349 25.4973 3.36542 25.1391C3.6106 24.8893 4.0197 23.783 4.63988 23.0741C5.45807 22.1385 5.9777 21.8526 5.9777 21.8526L5.69291 20.9128C5.69291 20.9128 6.0779 20.7782 6.92226 20.7782C7.76662 20.7782 9.26525 21.1167 9.26525 21.1167L6.71117 23.3779L6.35477 22.6904C6.35477 22.6904 5.87439 23.3538 5.56585 23.9821C5.15779 24.8122 5.25558 24.8031 5.25249 25.1034L22.4974 25.1C22.6624 24.4795 23.2206 24.0225 23.8828 24.0225C24.545 24.0225 25.1028 24.4791 25.2678 25.0997H25.9437C25.9816 24.6463 26.3552 24.2909 26.8105 24.2909H27.7674C27.8735 24.2909 27.9747 24.3102 28.0687 24.3452C28.3528 24.0877 28.7278 23.9307 29.1387 23.9307C30.0274 23.9307 30.7482 24.6641 30.7482 25.5686C30.7482 26.4733 30.0274 27.2068 29.1387 27.2068C28.6641 27.2068 28.2382 26.9979 27.9434 26.6664C27.8866 26.678 27.8273 26.6843 27.7671 26.6843H26.8101C26.3749 26.6843 26.014 26.3591 25.9506 25.934H25.2478C25.0608 26.5199 24.5205 26.9432 23.8824 26.9432C23.2447 26.9432 22.7044 26.5203 22.517 25.9354L5.25111 25.941C5.26109 26.2708 5.14505 26.2357 5.56516 27.0908C5.8737 27.7191 6.35408 28.382 6.35408 28.382L6.71048 27.6949L9.26456 29.9558C9.26456 29.9558 7.76593 30.2939 6.92157 30.2939C6.07721 30.2939 5.69223 30.1597 5.69223 30.1597L5.97701 29.2199C5.97701 29.2199 5.45738 28.9336 4.63919 27.998C4.01901 27.2894 3.61026 26.1828 3.36473 25.9333C3.0128 25.5752 2.68945 25.5412 2.68945 25.5412L2.7325 25.5362Z" fill="#FFB81C"/>
<path d="M21.3642 21.1368C21.3966 21.1284 21.4341 21.1204 21.4765 21.1123C22.2475 20.9708 22.7069 21.3643 22.9899 22.1394C23.3715 23.185 23.8374 24.5888 23.9986 25.078C24.0475 25.1337 24.0771 25.2066 24.0771 25.2872C24.0771 25.4603 23.939 25.6012 23.7685 25.6012C23.5981 25.6012 23.46 25.4607 23.46 25.2872C23.46 25.2651 23.4625 25.243 23.4669 25.222C23.2974 24.7076 22.8463 23.3504 22.4755 22.3339C22.2892 21.823 21.8377 21.611 21.5912 21.6625C21.5323 21.6877 21.3973 21.7259 21.326 21.7259C21.1649 21.7259 21.0832 21.598 21.0726 21.4344C21.064 21.3012 21.2403 21.1757 21.3642 21.1368Z" fill="#F4B21B"/>
<path d="M11.6012 12.6901H20.4683C20.49 12.6901 20.5117 12.6925 20.5327 12.6971H21.251L20.7772 13.1792V22.5508C20.7772 22.7243 20.6391 22.8648 20.4687 22.8648L16.0881 24.8369L11.6015 22.8648C11.4311 22.8648 11.293 22.7243 11.293 22.5508V13.127L10.8701 12.6967H11.5371C11.5578 12.6925 11.5795 12.6901 11.6012 12.6901Z" fill="white"/>
<mask id="mask0_441_1146" style="mask-type:luminance" maskUnits="userSpaceOnUse" x="10" y="12" width="12" height="13">
<path d="M11.6012 12.6901H20.4683C20.49 12.6901 20.5117 12.6925 20.5327 12.6971H21.251L20.7772 13.1792V22.5508C20.7772 22.7243 20.6391 22.8648 20.4687 22.8648L16.0881 24.8369L11.6015 22.8648C11.4311 22.8648 11.293 22.7243 11.293 22.5508V13.127L10.8701 12.6967H11.5371C11.5578 12.6925 11.5795 12.6901 11.6012 12.6901Z" fill="white"/>
</mask>
<g mask="url(#mask0_441_1146)">
<path d="M19.9572 15.9185H19.314V23.5278H19.9572V15.9185Z" fill="#AF272F"/>
<path d="M18.5378 15.9185H17.8945V24.7844H18.5378V15.9185Z" fill="#AF272F"/>
<path d="M17.1195 15.9185H16.4766V24.7844H17.1195V15.9185Z" fill="#AF272F"/>
<path d="M15.7018 15.9185H15.0586V24.7844H15.7018V15.9185Z" fill="#AF272F"/>
<path d="M14.2829 15.9185H13.6396V24.1736H14.2829V15.9185Z" fill="#AF272F"/>
<path d="M12.8635 15.9185H12.2202V23.5278H12.8635V15.9185Z" fill="#AF272F"/>
</g>
<path d="M21.2501 12.6969C21.2501 12.6969 20.7762 13.1065 20.7762 13.526C20.7762 13.9097 20.7762 16.1405 20.7762 16.1405H11.292V13.4741C11.292 13.1069 10.8691 12.6972 10.8691 12.6972L21.2501 12.6969Z" fill="#002F6C"/>
<path d="M24.5075 24.1768C25.118 22.6517 25.9445 21.2066 27.0595 20.2111C29.0723 18.4138 31.6119 18.8606 31.5055 21.2679C31.428 23.0228 31.1312 23.5506 29.5643 25.0535C29.4676 25.167 29.3915 25.2546 29.2637 25.2546C29.1105 25.2546 29.0185 25.1334 29.0185 24.9775C29.0185 24.9011 29.0116 24.8282 29.0605 24.7774L29.074 24.7556C30.6794 23.2264 30.8867 22.8438 30.9573 21.2427C31.0247 19.7121 29.3822 18.8802 27.4214 20.6312C26.399 21.5437 25.5853 22.9566 24.9603 24.5408C24.836 24.3902 24.6817 24.2658 24.5075 24.1768ZM22.8022 31.7647C22.8022 31.7647 22.9479 29.7032 23.5467 27.237L23.6249 26.923C23.7027 26.9359 23.7823 26.943 23.8635 26.943C23.9751 26.943 24.0839 26.9303 24.1879 26.9058C23.7213 28.6477 23.4489 30.4044 23.3494 31.805L22.8022 31.7647Z" fill="#CCCCCC"/>
<path fill-rule="evenodd" clip-rule="evenodd" d="M20.3124 25.0818C20.2091 24.6771 20.6881 24.5198 20.7766 24.8344C20.8651 25.1491 20.9432 26.2112 20.7982 26.2435C20.4005 26.3335 20.3124 25.0818 20.3124 25.0818Z" fill="white"/>
<path fill-rule="evenodd" clip-rule="evenodd" d="M11.3515 25.0211C11.4548 24.6168 10.9758 24.4391 10.8873 24.7538C10.7992 25.0684 10.7206 26.2108 10.8653 26.2434C11.2633 26.3335 11.3515 25.0211 11.3515 25.0211Z" fill="white"/>
<path fill-rule="evenodd" clip-rule="evenodd" d="M10.6245 24.9199C10.6641 24.5036 10.1672 24.485 10.1283 24.8098C10.0894 25.135 10.1314 26.3114 10.3893 26.2662C10.7061 26.2108 10.6245 24.9199 10.6245 24.9199Z" fill="white"/>
<path fill-rule="evenodd" clip-rule="evenodd" d="M9.41704 25.0218C9.32785 24.6136 9.77241 24.4734 9.84989 24.7909C9.92737 25.1084 10.0658 26.3335 9.86333 26.2602C9.56959 26.1544 9.41704 25.0218 9.41704 25.0218Z" fill="white"/>
<path fill-rule="evenodd" clip-rule="evenodd" d="M21.0395 25.0201C20.9999 24.6038 21.4968 24.5246 21.5358 24.8498C21.5747 25.175 21.4886 26.2357 21.3409 26.2451C20.9345 26.2704 21.0395 25.0201 21.0395 25.0201Z" fill="white"/>
<path fill-rule="evenodd" clip-rule="evenodd" d="M21.7218 25.0433C21.7177 24.6252 22.2201 24.5902 22.2311 24.9175C22.2418 25.2451 22.1629 26.3276 21.9177 26.2904C21.6089 26.2431 21.7218 25.0433 21.7218 25.0433Z" fill="white"/>
<path d="M10.0117 18.9028C10.0117 18.9028 10.4707 16.1688 10.8888 14.7661L11.1188 14.8064C10.7025 16.2032 10.0875 18.9259 10.0875 18.9259L10.0117 18.9028Z" fill="black"/>
<path d="M18.2891 9.81854C18.1765 9.92647 18.0394 10.0239 17.9296 10.0891C17.5181 10.3333 17.1059 9.77509 17.1059 9.77509C17.1059 9.77509 17.0373 10.0544 16.5914 10.1241C16.1455 10.1938 15.8713 9.70535 15.8713 9.70535C15.8713 9.70535 15.8713 9.87986 15.3224 10.1942C14.9953 10.3813 14.8603 10.135 14.8366 9.90509C15.0094 9.67382 15.1737 9.27819 15.0824 8.93759C14.9795 8.55353 14.808 8.23956 14.568 7.82046C14.328 7.40136 14.328 6.66863 14.9795 6.38935C15.631 6.11007 16.5005 6.05225 17.3803 6.52881C17.8807 6.79969 17.9964 6.95142 18.5811 7.05234C18.465 7.17008 18.2381 7.36631 18.0318 7.8201C17.8369 8.25042 18.0625 9.02554 18.2891 9.81854Z" fill="white"/>
<path fill-rule="evenodd" clip-rule="evenodd" d="M15.3915 7.75083C15.3915 7.75083 15.1498 7.45508 14.8771 7.15758C14.3967 6.63405 14.9515 6.3807 14.8086 6.49984C14.6219 6.65507 14.3282 6.59936 13.9852 6.63405C13.6422 6.66874 13.0933 7.08784 13.0592 7.40182C13.0251 7.71579 13.0592 8.13489 13.2307 8.41417C13.4022 8.69346 13.2652 8.1002 13.5052 8.13489C13.7452 8.16958 14.74 8.48391 14.98 8.44887C15.2201 8.41383 15.3915 7.75083 15.3915 7.75083Z" fill="white"/>
<path d="M13.3115 8.19035C13.3115 8.19035 13.3212 8.16196 13.3411 8.12061C13.6428 7.50458 14.1249 8.04667 14.6287 7.91842L14.5209 7.9822C14.2227 8.05824 14.1001 8.0288 13.8146 7.95837C13.6321 7.91316 13.4947 8.08242 13.441 8.23625L13.3115 8.19035Z" fill="black"/>
<path d="M15.0693 6.84211C15.0693 6.75836 15.1203 6.68477 15.1985 6.64062L15.1527 6.64027C14.9543 6.64027 14.7804 6.80216 14.8627 6.69739C15.0235 6.49204 15.6013 6.43422 15.8248 6.53409C16.0487 6.63431 16.6282 6.85262 16.6282 6.85262C16.6282 6.85262 16.1675 6.90799 16.0321 6.82319C15.9571 6.77623 15.7567 6.7489 15.5586 6.73348C15.622 6.77833 15.6027 6.71631 15.6027 6.79025C15.6027 6.81022 15.737 6.87855 15.5721 6.94619C15.8031 6.9178 15.9746 6.93322 15.9746 6.93322C15.9746 6.93322 15.7453 7.00961 15.5359 7.04255C15.4877 7.07023 15.4292 7.08635 15.3665 7.08635C15.3348 7.08635 15.3038 7.08215 15.2752 7.07479C15.1496 7.07794 15.2484 7.03099 15.1203 6.97913C15.0883 6.93988 15.0693 6.89292 15.0693 6.84211Z" fill="black"/>
<path d="M22.0925 18.9351C22.0925 18.9351 21.6334 16.2012 21.2154 14.7985L20.9854 14.8388C21.4017 16.2355 22.0167 18.9583 22.0167 18.9583L22.0925 18.9351Z" fill="black"/>
</svg>
